<?xml version="1.0" encoding="UTF-8"?>
<svg width="28px" height="20px" viewBox="0 0 28 20" version="1.1" xmlns="http://www.w3.org/2000/svg" xmlns:xlink="http://www.w3.org/1999/xlink">
    <!-- Generator: Sketch 47 (45396) - http://www.bohemiancoding.com/sketch -->
    <title>Page 1</title>
    <desc>Created with Sketch.</desc>
    <defs></defs>
    <g id="Page-1" stroke="none" stroke-width="1" fill="none" fill-rule="evenodd">
        <g id="create" transform="translate(-1372.000000, -435.000000)" fill="#D31145">
            <g id="Group-17" transform="translate(20.000000, 355.000000)">
                <g id="Group-6" transform="translate(0.000000, 60.000000)">
                    <g id="Page-1" transform="translate(1352.000000, 20.000000)">
                        <path d="M24.6394286,7.53114286 L24.6394286,5.04005714 C24.6394286,3.75211429 24.1282571,2.51662857 23.2175429,1.60577143 C22.3068286,0.693942857 21.0713429,0.182771429 19.7824,0.182771429 L4.9744,0.182771429 C3.68645714,0.182771429 2.45097143,0.693942857 1.540114,1.60577143 C0.628285429,2.51648571 0.117114,3.75197143 0.117114,5.04005714 L0.117114,9.04005714 C0.117114,10.328 0.628285429,11.5634857 1.540114,12.4743429 C2.45082857,13.3850571 3.68631429,13.8973429 4.9744,13.8973429 L13.6575429,13.8973429 C13.9700571,16.1607429 15.3885714,18.1193429 17.4421143,19.1216286 C19.4945714,20.1238571 21.9121143,20.0379143 23.8884,18.8917171 C25.8649714,17.7466314 27.1418286,15.6920029 27.2924,13.4117171 C27.4430686,11.1326886 26.4486571,8.92743143 24.6394857,7.53114571 L24.6394286,7.53114286 Z M1.83142743,9.04565714 L1.83142743,5.04565714 C1.83142743,3.31017143 3.2388,1.9028 4.97428571,1.9028 L19.7822857,1.9028 C21.5188857,1.9028 22.9251429,3.31017143 22.9251429,5.04565714 L22.9251429,6.57131429 C20.9441143,5.80457143 18.7197143,5.99877143 16.9017114,7.09811429 C15.0837114,8.19745714 13.8782829,10.0781143 13.63714,12.1884 L4.97428571,12.1884 C3.23879714,12.1884 1.83142714,10.7810286 1.83142714,9.04554286 L1.83142743,9.04565714 Z M20.4508571,18.1025143 C19.0870286,18.1025143 17.7789714,17.5612286 16.8145714,16.5969429 C15.8502857,15.6315429 15.3078857,14.3235143 15.3078857,12.9598 C15.3078857,11.5960857 15.8502857,10.2879143 16.8145714,9.32351429 C17.7788543,8.35911429 19.0868857,7.81682857 20.4508571,7.81682857 C21.8158,7.81682857 23.1238571,8.35922857 24.0879971,9.32351429 C25.05214,10.2878 25.5935686,11.5958286 25.5935686,12.9598 C25.5935686,14.3237714 25.0522829,15.6316857 24.0879971,16.5969429 C23.1237114,17.5612286 21.8156829,18.1025143 20.4508571,18.1025143 Z" id="Fill-1"></path>
                        <path d="M23.48,12.1005714 L21.3081143,12.1005714 L21.3081143,9.92868571 C21.3081143,9.45548571 20.9253143,9.07154286 20.4509714,9.07154286 C19.9777714,9.07154286 19.5938286,9.45548571 19.5938286,9.92868571 L19.5938286,12.1005714 L17.4286571,12.1005714 C16.9554571,12.1005714 16.5715143,12.4833714 16.5715143,12.9577143 C16.5715143,13.4309143 16.9554571,13.8148571 17.4286571,13.8148571 L19.6005429,13.8148571 L19.6005429,16.0001143 C19.6005429,16.4733143 19.9833429,16.8572571 20.4576857,16.8572571 C20.9308857,16.8572571 21.3148286,16.4733143 21.3148286,16.0001143 L21.3148286,13.8282286 L23.4867143,13.8282286 L23.4855971,13.8282286 C23.9587971,13.8282286 24.34274,13.4454286 24.34274,12.9710857 C24.34274,12.4978857 23.9587971,12.1139429 23.4855971,12.1139429 L23.48,12.1005714 Z" id="Fill-2"></path>
                    </g>
                </g>
            </g>
        </g>
    </g>
</svg>