<?xml version="1.0" encoding="UTF-8"?>
<svg width="16px" height="16px" viewBox="0 0 16 16" version="1.1" xmlns="http://www.w3.org/2000/svg" xmlns:xlink="http://www.w3.org/1999/xlink">
    <!-- Generator: Sketch 47 (45396) - http://www.bohemiancoding.com/sketch -->
    <title>Fill 1</title>
    <desc>Created with Sketch.</desc>
    <defs></defs>
    <g id="Page-1" stroke="none" stroke-width="1" fill="none" fill-rule="evenodd">
        <g id="calendar" transform="translate(-59.000000, -806.000000)" fill="#FFFFFF">
            <g id="box-2-copy-3" transform="translate(21.000000, 767.000000)">
                <path d="M53.5807487,45.8406996 C53.3710862,44.315537 52.6866152,42.7882695 51.5807355,41.577569 C51.5272938,41.5241273 51.4759043,41.4192961 51.371073,41.3679065 C51.2662418,41.2630753 51.1614105,41.2096336 51.1079688,41.1048023 C51.1079688,41.1048023 51.054527,41.1048023 51.054527,41.0513606 C50.7379811,40.7882563 50.4748558,40.5251521 50.1603936,40.3155107 C49.7924581,40.0524064 49.3710809,39.8427439 48.9496932,39.6844815 L48.8962514,39.6844815 C48.8428097,39.6844815 48.7914202,39.6310397 48.7379784,39.6310397 C48.0021285,39.3679355 47.2641738,39.158273 46.5283238,39.1048313 L46.4748821,39.1048313 C46.2652196,39 46.0555571,39 45.7924423,39 C45.5293276,39 45.2662339,39 45.0565924,39.0534417 L44.9517612,39.0534417 C44.7420987,39.0534417 44.5838257,39.1068835 44.3720899,39.158273 C44.3186482,39.158273 44.2138169,39.2117147 44.1624274,39.2117147 C44.0041544,39.2651564 43.7944919,39.316546 43.6362189,39.3699877 C43.5827772,39.3699877 43.5313877,39.4234294 43.4779459,39.4234294 C43.2682834,39.4768712 43.1100105,39.5282607 42.8982747,39.6330919 L42.844833,39.6330919 C42.7400017,39.6865337 42.6351705,39.7379232 42.528287,39.7913649 C42.4234557,39.8448067 42.2651828,39.8961962 42.1603515,39.9496379 C42.0555203,40.0030796 41.950689,40.0544692 41.8438055,40.1593004 C41.7389743,40.2127421 41.634143,40.2641317 41.5272596,40.3175734 L41.4738178,40.3710151 C41.3689866,40.4244569 41.2641553,40.5292881 41.1572719,40.6341194 C41.0524406,40.6875611 40.9476094,40.7923923 40.8941676,40.8437819 C40.6845051,41.0020548 40.5262322,41.1603278 40.3144964,41.3699903 C40.1562234,41.5282633 39.9465609,41.7379258 39.7882879,41.9496616 C39.7348462,42.0544928 39.6300149,42.1593241 39.5786254,42.2127658 C39.4737942,42.3175971 39.4203524,42.4224283 39.3155212,42.5293118 C39.2620794,42.634143 39.1572482,42.7389743 39.1058587,42.8972473 C39.0524169,43.0020785 39.0010274,43.1069098 38.8961962,43.2137932 C38.8427544,43.3186245 38.7913649,43.4768975 38.7379232,43.5817287 C38.6844815,43.68656 38.6330919,43.7913912 38.5796502,43.8982747 C38.5262085,44.0031059 38.474819,44.1079372 38.474819,44.2662102 C38.4213772,44.3710414 38.3699877,44.5293144 38.3699877,44.6341457 C38.316546,44.7389769 38.316546,44.8972499 38.2651564,45.0020812 C38.2117147,45.1069124 38.2117147,45.2651854 38.1603252,45.3700166 C38.1068835,45.5282896 38.1068835,45.6331209 38.1068835,45.7913939 C38.1068835,45.8962251 38.0534417,46.0010564 38.0534417,46.1593293 C38.0534417,46.4224336 38,46.6855378 38,46.9486421 C38,47.2117463 38,47.4214088 38.0534417,47.684492 C38.0534417,47.7893232 38.0534417,47.842765 38.1068835,47.9475962 C38.1068835,48.1058692 38.1603252,48.2641422 38.1603252,48.420363 C38.1603252,48.5251942 38.2137669,48.6300255 38.2137669,48.7369089 C38.2672087,48.8417402 38.2672087,48.9465714 38.3185982,49.1048444 C38.3720399,49.2096757 38.3720399,49.3679486 38.4234294,49.4727799 C38.4768712,49.5776111 38.4768712,49.6310529 38.5282607,49.7358841 C38.5817024,49.8941571 38.6330919,50.0524301 38.6865337,50.1572613 L38.6865337,50.2107031 C39.0030796,50.946553 39.4758464,51.6845078 40.0555176,52.315537 C40.0555176,52.315537 40.0555176,52.3689787 40.1089594,52.3689787 C40.2137906,52.4738099 40.2672323,52.5786412 40.3720636,52.6320829 C40.4255053,52.6855247 40.5303366,52.7369142 40.5817261,52.8417454 C40.8982721,53.1582914 41.2127553,53.4214167 41.5806803,53.6310581 C42.0020575,53.8941624 42.4748137,54.1572666 42.9496642,54.3669081 C43.1593267,54.4717393 43.422431,54.525181 43.6341562,54.6300123 C43.6875979,54.6300123 43.7389874,54.6300123 43.7389874,54.683454 C43.8972604,54.7368958 44.1069229,54.7882853 44.2651959,54.7882853 C44.3186376,54.7882853 44.3700272,54.7882853 44.4234689,54.841727 C44.6331314,54.8951687 44.8448461,54.8951687 45.0544981,54.9465583 L45.1079398,54.9465583 C45.3710441,54.9465583 45.6341483,55 45.8437898,55 C46.0534523,55 46.3699982,55 46.5796397,54.9465583 L46.6844709,54.9465583 C46.8941334,54.9465583 47.0524064,54.8931165 47.2641422,54.841727 C47.3175839,54.841727 47.4224152,54.7882853 47.4738047,54.7882853 C47.5272464,54.7882853 47.5786359,54.7882853 47.6320777,54.7348436 C47.7369089,54.6814018 47.8417402,54.6814018 47.9486236,54.6300123 C48.0020654,54.6300123 48.0534549,54.5765706 48.1068966,54.5765706 C48.3165591,54.5231288 48.4748321,54.4717393 48.6865679,54.3669081 L48.7400096,54.3669081 C48.8448409,54.3134663 48.9496721,54.2620768 49.0565556,54.2086351 C49.1613868,54.1551933 49.3196598,54.1038038 49.4244911,54.0503621 C49.5293223,53.9969204 49.6341536,53.9455308 49.741037,53.8406996 C49.8458683,53.7872579 49.9506995,53.7358683 50.057583,53.6824266 L50.1110247,53.6289849 C50.215856,53.5755431 50.3206872,53.4707119 50.4275707,53.3658806 C50.5324019,53.3124389 50.6372332,53.2076077 50.6906749,53.1562181 C50.9003374,52.9979452 51.0586104,52.8396722 51.2703462,52.6300097 C51.4286192,52.4717367 51.6382817,52.2620742 51.7965547,52.0503384 C51.8499964,51.9455072 51.9548276,51.8406759 52.0062172,51.7872342 C52.1110484,51.6824029 52.1644901,51.5775717 52.2693214,51.4706882 C52.3227631,51.365857 52.4275944,51.2610257 52.4789839,51.1027527 C52.5324256,50.9979215 52.5838151,50.8930902 52.6886464,50.7862068 C52.7420881,50.6813755 52.7934776,50.5231025 52.8469194,50.4182713 C52.9003611,50.31344 52.9517506,50.2086088 53.0051924,50.1017253 C53.0586341,49.9968941 53.1100236,49.8920628 53.1100236,49.7337898 C53.1634653,49.6289586 53.2148549,49.4706856 53.2148549,49.3658543 C53.2682966,49.2610231 53.2682966,49.1027501 53.3196861,48.9979188 C53.3731278,48.8930876 53.3731278,48.7348146 53.4245174,48.6299834 C53.4779591,48.4717104 53.4779591,48.3668791 53.4779591,48.2086061 C53.4779591,48.1037749 53.5314008,47.9989436 53.5314008,47.8406707 C53.5848426,47.3144622 53.5848426,46.7882537 53.5314008,46.315508 C53.6321224,46.0503463 53.6321224,45.9455203 53.5807329,45.8406891 L53.5807487,45.8406996 Z M49.4759016,47.419325 L46.3186508,47.419325 L46.3186508,50.5765758 L45.2662339,50.5765758 L45.2662339,47.419325 L42.108983,47.419325 L42.108983,46.3669081 L45.2662339,46.3669081 L45.2662339,43.2096572 L46.3186508,43.2096572 L46.3186508,46.3669081 L49.4759016,46.3669081 L49.4759016,47.419325 Z" id="Fill-1"></path>
            </g>
        </g>
    </g>
</svg>