<?xml version="1.0" encoding="UTF-8"?>
<svg width="21px" height="21px" viewBox="0 0 21 21" version="1.1" xmlns="http://www.w3.org/2000/svg" xmlns:xlink="http://www.w3.org/1999/xlink">
    <!-- Generator: Sketch 47 (45396) - http://www.bohemiancoding.com/sketch -->
    <title>Fill 2</title>
    <desc>Created with Sketch.</desc>
    <defs></defs>
    <g id="Page-1" stroke="none" stroke-width="1" fill="none" fill-rule="evenodd">
        <g id="dashboard-tile" transform="translate(-1163.000000, -210.000000)" fill="#FFFFFF">
            <g id="create-new" transform="translate(1140.000000, 188.000000)">
                <path d="M24.3461538,34.1153846 L31.8846154,34.1153846 L31.8846154,41.6538462 C31.8846154,42.4068308 32.4777846,43 33.2307692,43 C33.9837538,43 34.5769231,42.4068308 34.5769231,41.6538462 L34.5769231,34.1153846 L42.6538462,34.1153846 C43.4068308,34.1153846 44,33.5222154 44,32.7692308 C44,32.0162462 43.4068308,31.4230769 42.6538462,31.4230769 L34.5769231,31.4230769 L34.5769231,23.3461538 C34.5769231,22.5931692 33.9837538,22 33.2307692,22 C32.4777846,22 31.8846154,22.5931692 31.8846154,23.3461538 L31.8846154,31.4230769 L24.3461538,31.4230769 C23.5931692,31.4230769 23,32.0162462 23,32.7692308 C23,33.5222154 23.5931692,34.1153846 24.3461538,34.1153846 Z" id="Fill-2"></path>
            </g>
        </g>
    </g>
</svg>