<?xml version="1.0" encoding="UTF-8"?>
<svg width="33px" height="15px" viewBox="0 0 33 15" version="1.1" xmlns="http://www.w3.org/2000/svg" xmlns:xlink="http://www.w3.org/1999/xlink">
    <!-- Generator: Sketch 47 (45396) - http://www.bohemiancoding.com/sketch -->
    <title>status</title>
    <desc>Created with Sketch.</desc>
    <defs></defs>
    <g id="Page-1" stroke="none" stroke-width="1" fill="none" fill-rule="evenodd">
        <g id="dashboard-tile" transform="translate(-790.000000, -1100.000000)" fill="#D31145">
            <g id="tiles" transform="translate(296.000000, 458.000000)">
                <g id="10-copy" transform="translate(280.000000, 461.000000)">
                    <g id="status" transform="translate(214.000000, 181.000000)">
                        <path d="M26.9170085,0 L21.7555512,0 L21.7438569,2.58507774 C20.4055635,1.0043782 18.4586327,0.00491182963 16.258679,0.00491182963 L8.56805449,0.00491182963 L0,14.997635 L5.80677231,14.997635 L7.63906306,11.7651054 L11.4843753,11.7651054 L11.4843753,14.997635 L16.258679,15 C18.4586327,15 20.4055635,13.9939845 21.7438569,12.413285 L21.7426166,14.997635 L26.7105856,14.997635 L26.7105856,11.7658331 L26.9170085,11.7658331 C30.0817455,11.7658331 32.6470588,9.13200087 32.6470588,5.88291654 C32.6470588,2.63401412 30.0817455,0 26.9170085,0 Z M26.9170085,9.91098067 L24.903987,9.91025299 L24.903987,13.1427826 L23.5621499,13.1427826 L23.5621499,9.91279986 L21.2445439,9.91279986 C20.3621527,11.8304145 18.4612905,13.1307759 16.258679,13.1307759 L13.2907967,13.1427826 L13.2907967,9.91025299 L6.555033,9.91025299 L4.69705014,13.1427826 L3.22604368,13.1427826 L9.67777666,1.86758678 L16.258679,1.86758678 C19.0288205,1.86758678 21.3217974,3.9396512 21.7112545,6.67299343 L23.5621499,6.67790526 L23.5621499,1.8548524 L26.9170085,1.8548524 C29.0838283,1.8548524 30.8404602,3.65840347 30.8404602,5.88291654 C30.8404602,8.1074296 29.0838283,9.91098067 26.9170085,9.91098067 L26.9170085,9.91098067 Z" id="Fill-2"></path>
                        <path d="M16.7354715,3.52941176 L15,3.52941176 L15,5.42353668 L16.7354715,5.42560347 C18.1339106,5.42560347 19.2675654,6.55200749 19.2675654,7.94108253 C19.2675654,9.33034546 18.1339106,10.4293174 16.7354715,10.4293174 C16.7354715,10.4293174 15,10.4041401 15,10.4293174 C15,10.4546827 15,12.3471166 15,12.3471166 L16.7354715,12.3529412 C19.1881301,12.3529412 21.1764706,10.3778354 21.1764706,7.94108253 C21.1764706,5.50451752 19.1881301,3.52941176 16.7354715,3.52941176" id="Fill-3"></path>
                        <path d="M26.642368,3.52941176 L24.7058824,3.52941176 L24.7058824,5.37068571 L26.642368,5.37323394 C27.0592894,5.37323394 27.3972923,5.73398967 27.3972923,6.17920083 C27.3972923,6.62441199 27.0592894,6.98534973 26.642368,6.98534973 L24.7058824,6.98534973 L24.7058824,8.82352941 L26.642368,8.8222553 C28.0093793,8.8222553 29.1176471,7.63896922 29.1176471,6.17920083 C29.1176471,4.71943243 28.0093793,3.52941176 26.642368,3.52941176" id="Fill-4"></path>
                        <polyline id="Fill-5" points="11.3637198 6.97073364 8.15514935 6.97073364 7.05882353 8.82352941 13.2352941 8.82352941 13.2352941 3.52941176 11.3637198 3.52941176 11.3637198 6.97073364"></polyline>
                    </g>
                </g>
            </g>
        </g>
    </g>
</svg>