<?xml version="1.0" encoding="UTF-8"?>
<svg width="29px" height="30px" viewBox="0 0 29 30" version="1.1" xmlns="http://www.w3.org/2000/svg" xmlns:xlink="http://www.w3.org/1999/xlink">
    <!-- Generator: Sketch 47 (45396) - http://www.bohemiancoding.com/sketch -->
    <title>Page 1</title>
    <desc>Created with Sketch.</desc>
    <defs></defs>
    <g id="Symbols" stroke="none" stroke-width="1" fill="none" fill-rule="evenodd">
        <g id="header" transform="translate(-1109.000000, -21.000000)" fill="#000000">
            <g id="Group-4">
                <g id="Group" transform="translate(1078.000000, 0.000000)">
                    <g id="alerts" transform="translate(28.000000, 21.000000)">
                        <path d="M28.043945,17.6146789 C29.7146972,17.6146789 31.0736147,18.9714495 31.0736147,20.6422018 C31.0736147,22.3129541 29.7146422,23.6697248 28.0396514,23.6697248 L6.0339633,23.6697248 C4.35891743,23.6697248 3,22.3151009 3,20.6422018 C3,18.9714495 4.35677064,17.6146789 6.02966972,17.6146789 C6.17803486,17.6146789 6.30274679,17.489967 6.30274679,17.3394495 L6.30274679,10.733945 C6.30274679,4.80385321 11.1085266,0 17.0366917,0 C22.9648569,0 27.7706367,4.80577982 27.7706367,10.733945 L27.7706367,17.3394495 C27.7706367,17.4942661 27.8910495,17.6146789 28.0437138,17.6146789 L28.043945,17.6146789 Z M28.043945,19.266055 C26.979578,19.266055 26.1194862,18.4059633 26.1194862,17.3394495 L26.1194862,10.733945 C26.1194862,5.71744954 22.0534128,1.65137615 17.0369174,1.65137615 C12.020422,1.65137615 7.95434862,5.71530275 7.95434862,10.733945 L7.95434862,17.3394495 C7.95434862,18.4016697 7.09211009,19.266055 6.02988991,19.266055 C5.2687156,19.266055 4.65159633,19.8831743 4.65159633,20.6422018 C4.65159633,21.4012294 5.2687156,22.0183486 6.03418349,22.0183486 L28.0398716,22.0183486 C28.8031927,22.0183486 29.4224587,21.4012294 29.4224587,20.6422018 C29.4224587,19.8831743 28.8031927,19.266055 28.0441651,19.266055 L28.043945,19.266055 Z M12.3580734,25.3211009 L14.0094495,25.3211009 C14.0094495,26.994 15.3640734,28.3486239 17.0369725,28.3486239 C18.7098716,28.3486239 20.0644954,26.994 20.0644954,25.3211009 L21.7158716,25.3211009 C21.7158716,27.9056697 19.6215413,30 17.0369725,30 C14.4524037,30 12.3580734,27.9056697 12.3580734,25.3211009 Z" id="Page-1"></path>
                    </g>
                </g>
            </g>
        </g>
    </g>
</svg>