<?xml version="1.0" encoding="UTF-8"?>
<svg width="20px" height="20px" viewBox="0 0 20 20" version="1.1" xmlns="http://www.w3.org/2000/svg" xmlns:xlink="http://www.w3.org/1999/xlink">
    <!-- Generator: Sketch 47 (45396) - http://www.bohemiancoding.com/sketch -->
    <title>Page 1</title>
    <desc>Created with Sketch.</desc>
    <defs></defs>
    <g id="Page-1" stroke="none" stroke-width="1" fill="none" fill-rule="evenodd" opacity="0.7">
        <g id="dashboard-tile" transform="translate(-33.000000, -694.000000)" fill="#FFFFFF">
            <g id="box-4" transform="translate(21.000000, 669.000000)">
                <g id="Page-1" transform="translate(12.000000, 25.000000)">
                    <path d="M10,0.149456522 C4.56782609,0.149456522 0.149565217,4.56858696 0.149565217,9.9998913 C0.149565217,15.4311957 4.56782609,19.8503263 10,19.8503263 C15.4321739,19.8503263 19.8504348,15.4311957 19.8504348,9.9998913 C19.8504348,4.56858696 15.4321739,0.149456522 10,0.149456522 Z M10,18.7559774 C5.1723913,18.7559774 1.24413043,14.8277174 1.24413043,10.0001087 C1.24413043,5.1725 5.1723913,1.24423913 10,1.24423913 C14.8276087,1.24423913 18.7558696,5.1725 18.7558696,10.0001087 C18.7558696,14.8277174 14.8276087,18.7559774 10,18.7559774 Z" id="Fill-1"></path>
                    <path d="M8.90543478,11.9623913 L6.55565217,9.6126087 L5.78204348,10.3862174 L8.51813043,13.1223043 C8.62512826,13.2293022 8.76523913,13.2828 8.9045,13.2828 C9.04461522,13.2828 9.18473913,13.2293022 9.29086957,13.1223043 L14.763913,7.64926087 L13.9903043,6.87565217 L8.90543478,11.9623913 Z" id="Fill-2"></path>
                </g>
            </g>
        </g>
    </g>
</svg>