<?xml version="1.0" encoding="UTF-8"?>
<svg width="13px" height="26px" viewBox="0 0 13 26" version="1.1" xmlns="http://www.w3.org/2000/svg" xmlns:xlink="http://www.w3.org/1999/xlink">
    <!-- Generator: Sketch 47 (45396) - http://www.bohemiancoding.com/sketch -->
    <title>Page 1</title>
    <desc>Created with Sketch.</desc>
    <defs></defs>
    <g id="Page-1" stroke="none" stroke-width="1" fill="none" fill-rule="evenodd">
        <g id="create" transform="translate(-918.000000, -139.000000)" fill="#707070">
            <g id="Group-18" transform="translate(909.000000, 127.000000)">
                <path d="M16.0387958,16.3040569 L10.0016829,22.3260481 L5.17415106,27.1303383 C4.31172046,27.977591 3.894012,29.1196758 3.894012,30.2425317 C3.894012,31.3589561 4.31300369,32.4946422 5.17415106,33.3431746 L5.22170632,33.3906004 C6.0712717,34.2135052 7.17406152,34.6198387 8.28840043,34.6198387 C9.41432133,34.6198387 10.5389261,34.2019876 11.4026399,33.3431844 L16.1940307,28.5697589 L21.3826081,23.3951025 C21.9455521,22.8336909 22.2206244,22.0863891 22.2206244,21.358349 C22.2206244,20.6238774 21.9455719,19.8881261 21.3826081,19.3267145 C20.8196641,18.7665827 20.0883206,18.4858605 19.3467112,18.4858605 C18.6038186,18.4858605 17.8622093,18.7665729 17.3043982,19.3267145 L9.88303991,26.7341049 C9.54758991,27.0686418 9.54758991,27.5941878 9.88303991,27.9287246 C10.2069342,28.2453254 10.7454705,28.2453254 11.0796373,27.9287246 L18.4957277,20.516084 C18.723225,20.2840805 19.0342574,20.1751157 19.3452931,20.1751157 C19.6563321,20.1751157 19.9570986,20.2827844 20.1897256,20.5096525 C20.4223624,20.7493476 20.5431737,21.0467162 20.5431737,21.3569052 C20.5431737,21.6555634 20.4236423,21.9721642 20.1897256,22.1990389 L15.0331072,27.3531047 L10.218582,32.1509864 C9.68005235,32.6778122 8.98470514,32.9457042 8.29064115,32.9457042 C7.60687593,32.9457042 6.91794487,32.6880632 6.39741333,32.1932834 C5.8473214,31.6318686 5.5838311,30.9384142 5.5838311,30.2398409 C5.5838311,29.534869 5.84731482,28.8426944 6.36785293,28.3235798 L10.6156798,24.0820662 L17.2270588,17.4821221 C18.0174968,16.7002345 19.059876,16.3054515 20.1022552,16.3054515 C21.1330524,16.3054515 22.1754316,16.7002345 22.9645864,17.4821221 C23.7434753,18.2640096 24.1380527,19.3035513 24.1380527,20.3366614 C24.1380527,21.376203 23.7434753,22.4041942 22.9645864,23.1989119 L21.0135215,25.1273497 L22.199853,26.3168504 L24.152234,24.3871002 C25.2781549,23.2706758 25.8295499,21.8068515 25.8295499,20.3378755 C25.8295499,18.8753638 25.2781549,17.4051409 24.152234,16.3053859 C23.0353287,15.1812502 21.5610925,14.6198387 20.0985371,14.6198387 C18.6261206,14.6197895 17.1532006,15.181201 16.0387958,16.3040569 Z" id="Page-1" transform="translate(14.861781, 24.619839) rotate(-45.000000) translate(-14.861781, -24.619839) "></path>
            </g>
        </g>
    </g>
</svg>