<?xml version="1.0" encoding="UTF-8"?>
<svg width="15px" height="15px" viewBox="0 0 15 15" version="1.1" xmlns="http://www.w3.org/2000/svg" xmlns:xlink="http://www.w3.org/1999/xlink">
    <!-- Generator: Sketch 47 (45396) - http://www.bohemiancoding.com/sketch -->
    <title>Page 1</title>
    <desc>Created with Sketch.</desc>
    <defs></defs>
    <g id="Page-1" stroke="none" stroke-width="1" fill="none" fill-rule="evenodd">
        <g id="create" transform="translate(-455.000000, -237.000000)" fill="#D31145">
            <g id="Group-11" transform="translate(20.000000, 146.000000)">
                <g id="Group-5" transform="translate(352.000000, 57.000000)">
                    <path d="M95.1950496,35.2914121 L94.3577635,35.2914121 L94.3577635,34.6989422 C94.3577635,34.3130795 94.0456159,34 93.6588213,34 C93.2729587,34 92.9598792,34.3130795 92.9598792,34.6989422 L92.9598792,35.2905035 L87.7979583,35.2914145 L87.7979583,34.6989445 C87.7979583,34.3130818 87.4848789,34.0000023 87.0990162,34.0000023 C86.7122216,34.0000023 86.400074,34.3130818 86.400074,34.6989445 L86.400074,35.2905058 L85.5627879,35.2914145 C84.1476164,35.2914145 83,36.4381223 83,37.8542024 L83,46.4372121 C83,47.8523836 84.1476164,49 85.5627879,49 L95.1951428,49 C96.6103143,49 97.7579307,47.8523836 97.7579307,46.4372121 L97.7579307,37.8542024 C97.7579307,36.4381223 96.6103143,35.2914145 95.1951428,35.2914145 L95.1950496,35.2914121 Z M85.5664224,36.6892964 L86.4027766,36.6892964 L86.4027766,37.7468192 L86.4018656,37.7468192 C86.4018656,38.1326819 86.7149451,38.4457614 87.1008078,38.4457614 C87.4866705,38.4457614 87.79975,38.1326819 87.79975,37.7468192 L87.79975,36.6892964 L92.9598069,36.6892964 L92.9598069,37.7468192 C92.9598069,38.1326819 93.2728864,38.4457614 93.6587491,38.4457614 C94.0455437,38.4457614 94.3576913,38.1326819 94.3576913,37.7468192 L94.3576913,36.6892964 L95.1949774,36.6892964 C95.5034904,36.6892964 95.8001914,36.8112479 96.0186108,37.0305666 C96.2370302,37.248986 96.359881,37.5447551 96.359881,37.8542 L96.359881,39.9746974 L84.3977189,39.9737864 L84.3977189,37.8532891 L84.3977189,37.8542 C84.3977189,37.2107772 84.9201083,36.6892964 85.5626225,36.6892964 L85.5664224,36.6892964 Z M95.1950496,47.6021134 L85.5626947,47.6021134 C84.9201805,47.6021134 84.3977911,47.0806326 84.3977911,46.4372098 L84.3977911,41.3717429 L96.3599532,41.3717429 L96.3599532,46.4372098 C96.3599532,46.7457228 96.2370931,47.0424238 96.018683,47.2608432 C95.8002729,47.4792626 95.503586,47.6021134 95.1950496,47.6021134 Z" id="Page-1"></path>
                </g>
            </g>
        </g>
    </g>
</svg>