<?xml version="1.0" encoding="UTF-8"?>
<svg width="31px" height="35px" viewBox="0 0 31 35" version="1.1" xmlns="http://www.w3.org/2000/svg" xmlns:xlink="http://www.w3.org/1999/xlink">
    <!-- Generator: Sketch 47 (45396) - http://www.bohemiancoding.com/sketch -->
    <title>Page 1</title>
    <desc>Created with Sketch.</desc>
    <defs></defs>
    <g id="Page-1" stroke="none" stroke-width="1" fill="none" fill-rule="evenodd">
        <g id="calendar" transform="translate(-37.000000, -545.000000)">
            <g id="box-1" transform="translate(21.000000, 527.000000)">
                <g id="Page-1" transform="translate(16.000000, 18.000000)">
                    <polygon id="Fill-1" fill="#004990" points="6 25.1818182 24 25.1818182 24 22 6 22"></polygon>
                    <polygon id="Fill-1-Copy" fill="#BBBBBB" points="6 30.1818182 24 30.1818182 24 27 6 27"></polygon>
                    <path d="M7.42424242,0 L7.42424242,3.18181818 L3.71212121,3.18181818 C1.64478788,3.18181818 0,4.82660606 0,6.89393939 L0,31.2878788 C0,33.3552121 1.64478788,35 3.71212121,35 L27.0454545,35 C29.1127879,35 30.7575758,33.3552121 30.7575758,31.2878788 L30.7575758,6.89393939 C30.7575758,4.82660606 29.1127879,3.18181818 27.0454545,3.18181818 L23.3333333,3.18181818 L23.3333333,0 L20.1515152,0 L20.1515152,3.18181818 L10.6060606,3.18181818 L10.6060606,0 L7.42424242,0 Z M27.0454545,31.8181818 L3.71212121,31.8181818 C3.39311212,31.8181818 3.18181818,31.6068879 3.18181818,31.2878788 L3.18181818,15.9090909 L27.5757576,15.9090909 L27.5757576,31.2878788 C27.5757576,31.6068879 27.3644636,31.8181818 27.0454545,31.8181818 Z M20.1515152,6.36363636 L20.1515152,9.54545455 L23.3333333,9.54545455 L23.3333333,6.36363636 L27.0454545,6.36363636 C27.3644636,6.36363636 27.5757576,6.5749303 27.5757576,6.89393939 L27.5757576,12.7272727 L3.18181818,12.7272727 L3.18181818,6.89393939 C3.18181818,6.5749303 3.39311212,6.36363636 3.71212121,6.36363636 L7.42424242,6.36363636 L7.42424242,9.54545455 L10.6060606,9.54545455 L10.6060606,6.36363636 L20.1515152,6.36363636 Z" id="Fill-2" fill="#BBBBBB"></path>
                    <polygon id="Fill-3" fill="#BBBBBB" points="6 20.1818182 24 20.1818182 24 17 6 17"></polygon>
                </g>
            </g>
        </g>
    </g>
</svg>