<?xml version="1.0" encoding="UTF-8"?>
<svg width="25px" height="25px" viewBox="0 0 25 25" version="1.1" xmlns="http://www.w3.org/2000/svg" xmlns:xlink="http://www.w3.org/1999/xlink">
    <!-- Generator: Sketch 47 (45396) - http://www.bohemiancoding.com/sketch -->
    <title>np_tick-mark_1117271_000000</title>
    <desc>Created with Sketch.</desc>
    <defs></defs>
    <g id="Page-1" stroke="none" stroke-width="1" fill="none" fill-rule="evenodd">
        <g id="sign-in" transform="translate(-338.000000, -565.000000)" fill-rule="nonzero" fill="#FFFFFF">
            <g id="np_tick-mark_1117271_000000" transform="translate(338.000000, 565.000000)">
                <path d="M12.5,0 C5.60643939,0 0,5.60643939 0,12.5 C0,19.3935606 5.60643939,25 12.5,25 C19.3935606,25 25,19.3935606 25,12.5 C25,5.60643939 19.3935606,0 12.5,0 Z M18.7886364,10.3412879 L11.7810606,17.007197 C11.553197,17.2350606 11.2883333,17.3105227 10.985,17.3105227 C10.6816667,17.3105227 10.4168182,17.1965909 10.1889394,16.9702045 L6.17454545,12.9542955 C5.72030303,12.500053 5.72030303,11.779447 6.17454545,11.3636894 C6.62878788,10.909447 7.34939394,10.909447 7.76515152,11.3636894 L10.9848485,14.5833864 L17.1962121,8.67353788 C17.6504545,8.25626515 18.3710606,8.25626515 18.7868182,8.71200758 C19.2795455,9.16625 19.2425379,9.88685606 18.7882977,10.3410985 L18.7886364,10.3412879 Z" id="Shape"></path>
            </g>
        </g>
    </g>
</svg>