<?xml version="1.0" encoding="UTF-8"?>
<svg width="20px" height="17px" viewBox="0 0 20 17" version="1.1" xmlns="http://www.w3.org/2000/svg" xmlns:xlink="http://www.w3.org/1999/xlink">
    <!-- Generator: Sketch 47 (45396) - http://www.bohemiancoding.com/sketch -->
    <title>Page 1</title>
    <desc>Created with Sketch.</desc>
    <defs></defs>
    <g id="Page-1" stroke="none" stroke-width="1" fill="none" fill-rule="evenodd" opacity="0.7">
        <g id="dashboard-tile" transform="translate(-33.000000, -776.000000)" fill="#FFFFFF">
            <g id="box-4-copy" transform="translate(21.000000, 749.000000)">
                <g id="Page-1" transform="translate(12.000000, 27.000000)">
                    <path d="M19.793,7.3495 C19.793,6.93545 19.45705,6.5995 19.043,6.5995 L0.957,6.5995 C0.54295,6.5995 0.207,6.93545 0.207,7.3495 C0.207,7.76455 0.54295,8.0995 0.957,8.0995 L19.043,8.0995 C19.45705,8.0995 19.793,7.76455 19.793,7.3495 Z" id="Fill-1"></path>
                    <path d="M14.69725,16.4005 C14.89647,16.3995225 15.0869,16.3204225 15.227525,16.1797975 L19.112275,12.2950475 C19.387675,11.9991475 19.37985,11.5391975 19.09372,11.2530475 C18.80857,10.9678975 18.34762,10.9600725 18.052695,11.2354675 L14.697195,14.5899675 L13.072195,12.9649675 C12.780195,12.6690675 12.303645,12.6651675 12.007745,12.957155 C11.71087,13.25013 11.707945,13.72668 11.9999325,14.02258 L14.1571575,16.179805 C14.3007125,16.32336 14.4950575,16.40246 14.6972075,16.4005075 L14.69725,16.4005 Z" id="Fill-2"></path>
                    <path d="M19.043,0.0995 L0.957,0.0995 C0.54295,0.0995 0.207,0.43545 0.207,0.8495 C0.207,1.26455 0.54295,1.5995 0.957,1.5995 L19.043,1.5995 C19.45705,1.5995 19.793,1.26455 19.793,0.8495 C19.793,0.43545 19.45705,0.0995 19.043,0.0995 Z" id="Fill-3"></path>
                    <path d="M7.15525,14.5995 C7.5693,14.5995 7.90525,14.26455 7.90525,13.8495 C7.90525,13.43545 7.5693,13.0995 7.15525,13.0995 L0.957,13.0995 C0.54295,13.0995 0.207,13.43545 0.207,13.8495 C0.207,14.26455 0.54295,14.5995 0.957,14.5995 L7.15525,14.5995 Z" id="Fill-4"></path>
                </g>
            </g>
        </g>
    </g>
</svg>