<?xml version="1.0" encoding="UTF-8"?>
<svg width="30px" height="30px" viewBox="0 0 30 30" version="1.1" xmlns="http://www.w3.org/2000/svg" xmlns:xlink="http://www.w3.org/1999/xlink">
    <!-- Generator: Sketch 47 (45396) - http://www.bohemiancoding.com/sketch -->
    <title>Page 1</title>
    <desc>Created with Sketch.</desc>
    <defs></defs>
    <g id="Page-1" stroke="none" stroke-width="1" fill="none" fill-rule="evenodd">
        <g id="reports" transform="translate(-1328.000000, -912.000000)" fill="#004990">
            <g id="Page-1" transform="translate(1328.000000, 912.000000)">
                <path d="M14.2182955,20.3413636 C14.3248295,20.411942 14.395408,20.4478977 14.501942,20.4838534 C14.6444318,20.5198091 14.7509659,20.5544318 14.8921125,20.5903875 L15.177092,20.5903875 L15.177092,20.5544318 C15.2476705,20.5544318 15.3542045,20.5184761 15.4261159,20.4838534 C15.53265,20.4478977 15.6391841,20.3773193 15.7097625,20.3067409 L22.6704443,13.3460591 C22.9194682,13.0970352 23.0260125,12.8133886 23.0260125,12.4578205 C23.0260125,12.1022523 22.8835227,11.8186159 22.6704443,11.5695818 C22.208342,11.1074795 21.3920352,11.1074795 20.929933,11.5695818 L16.242433,16.3634455 L16.242433,1.41287727 C16.242433,0.737706818 15.6737966,0.170434091 14.9999898,0.170434091 C14.3248193,0.170434091 13.7575466,0.739070455 13.7575466,1.41287727 L13.7575466,16.3634455 L9.03425114,11.64015 C8.57214886,11.1780477 7.75584205,11.1780477 7.29373977,11.64015 C7.04471591,11.8891739 6.93817159,12.1728205 6.93817159,12.5283886 C6.93817159,12.8839568 7.08066136,13.1675932 7.29373977,13.4166273 L14.2182955,20.3413636 Z" id="Fill-1"></path>
                <path d="M28.6721591,16.3994318 C27.9969886,16.3994318 27.4297159,16.9680682 27.4297159,17.641875 L27.4297159,22.5782386 C27.4297159,24.8154545 25.5826705,26.6623295 23.345625,26.6623295 L6.65437841,26.6609966 C4.4171625,26.6609966 2.5702875,24.8139511 2.5702875,22.5769057 L2.57161705,17.6415648 C2.57161705,16.9663943 2.00298068,16.3991216 1.32917489,16.3991216 C0.654004432,16.3991216 0.0854021591,16.9664284 0.0854021591,17.6415648 L0.0854021591,22.5779284 C0.0854021591,26.2000875 3.03238977,29.1472473 6.65471932,29.1472473 L23.3804011,29.1472473 C27.0025602,29.1472473 29.9497193,26.200258 29.9497193,22.5779284 L29.9510523,17.6415648 C29.9150966,16.9663943 29.3824159,16.3991216 28.6726432,16.3991216 L28.6721591,16.3994318 Z" id="Fill-2"></path>
            </g>
        </g>
    </g>
</svg>