<?xml version="1.0" encoding="UTF-8"?>
<svg width="20px" height="20px" viewBox="0 0 20 20" version="1.1" xmlns="http://www.w3.org/2000/svg" xmlns:xlink="http://www.w3.org/1999/xlink">
    <!-- Generator: Sketch 47 (45396) - http://www.bohemiancoding.com/sketch -->
    <title>Page 1</title>
    <desc>Created with Sketch.</desc>
    <defs></defs>
    <g id="Page-1" stroke="none" stroke-width="1" fill="none" fill-rule="evenodd">
        <g id="wage-rates" transform="translate(-1344.000000, -602.000000)" fill="#D31145">
            <g id="Page-1" transform="translate(1344.000000, 602.000000)">
                <path d="M4.69192308,19.9234615 L15.3080769,19.9234615 C17.8471538,19.9234615 19.9234615,17.8471538 19.9234615,15.3080769 L19.9234615,12.3077692 C19.9234615,11.8840769 19.5779077,11.5385385 19.1542308,11.5385385 C18.7305385,11.5385385 18.385,11.8840923 18.385,12.3077692 L18.385,15.3080769 C18.385,16.9997692 16.9997692,18.385 15.3080769,18.385 L4.69192308,18.385 C3.00023077,18.385 1.615,16.9997692 1.615,15.3080769 L1.615,4.69192308 C1.615,3.00023077 3.00023077,1.615 4.69192308,1.615 L7.69223077,1.615 C8.11592308,1.615 8.46146154,1.26944615 8.46146154,0.845769231 C8.46146154,0.422076923 8.11590769,0.0765384615 7.69223077,0.0765384615 L4.69192308,0.0765384615 C2.15284615,0.0765384615 0.0765384615,2.15284615 0.0765384615,4.69192308 L0.0765384615,15.3080769 C0.0765384615,17.8456538 2.15434615,19.9234615 4.69192308,19.9234615 Z" id="Fill-1"></path>
                <path d="M15.0765385,1.07730769 L7.23115385,8.92269231 C7.15453077,8.99931538 7.07790769,9.115 7.03884615,9.26824615 L5.96161538,13.1144 C5.84593077,13.5380923 6.0773,13.9602462 6.49946154,14.0759385 C6.61514615,14.115 6.76839231,14.115 6.92315385,14.0759385 L10.7693077,12.9987077 C10.8849923,12.9596462 11.0006769,12.8830231 11.1148615,12.8064 L18.9994769,4.96101538 C20.0767077,3.88378462 20.0767077,2.15301538 18.9994769,1.07563077 C17.9237462,-0.0001 16.1148615,-0.0001 15.0767846,1.07713462 L15.0765385,1.07730769 Z M7.76884615,12.2311538 L8.15346154,10.9240769 L9.115,11.8856154 L7.76884615,12.2311538 Z M17.8453846,3.84615385 L10.5769231,11.1146154 L8.88523077,9.42292308 L16.1536923,2.15446154 C16.654,1.73076923 17.4232308,1.76984615 17.8453846,2.27014615 C18.23,2.73137692 18.23,3.38491538 17.8453846,3.84618462 L17.8453846,3.84615385 Z" id="Fill-2"></path>
            </g>
        </g>
    </g>
</svg>