<?xml version="1.0" encoding="UTF-8"?>
<svg width="24px" height="20px" viewBox="0 0 24 20" version="1.1" xmlns="http://www.w3.org/2000/svg" xmlns:xlink="http://www.w3.org/1999/xlink">
    <!-- Generator: Sketch 47 (45396) - http://www.bohemiancoding.com/sketch -->
    <title>Page 1</title>
    <desc>Created with Sketch.</desc>
    <defs></defs>
    <g id="Page-1" stroke="none" stroke-width="1" fill="none" fill-rule="evenodd">
        <g id="create" transform="translate(-1051.000000, -1156.000000)" fill="#D31145">
            <g id="Group-3" transform="translate(1041.000000, 1137.000000)">
                <path d="M21.5791533,19 C20.9572313,19 20.3836252,19.3207373 20.0659931,19.8552645 L10.2386091,36.4095004 C9.92097701,36.9450802 9.91995069,37.6091339 10.2386091,38.1447136 C10.5572675,38.6802934 11.136032,39.0020307 11.7599804,38.9999781 L31.3981684,38.9999781 C32.0221431,39.0030623 32.6008808,38.6802934 32.9195392,38.1447136 C33.2381976,37.6091339 33.2371712,36.9450802 32.9195392,36.4095004 L23.0921557,19.8552645 C22.7745236,19.3207373 22.2009175,19 21.5789954,19 L21.5791533,19 Z M21.5791533,20.0526332 C21.8145563,20.0526332 22.0756541,20.2016887 22.1877069,20.3897916 L32.0150904,36.9440276 C32.127138,37.1331726 32.127138,37.4127651 32.0150904,37.6019233 C31.9030429,37.7910815 31.6347477,37.9483449 31.3983,37.9473186 L11.7601119,37.9473186 C11.52368,37.9473186 11.2553743,37.7910683 11.1433215,37.6019233 C11.0312692,37.4127783 11.0312745,37.1331858 11.1433215,36.9440276 L20.970705,20.3897916 C21.0827526,20.2016755 21.3438635,20.0526332 21.5792586,20.0526332 L21.5791533,20.0526332 Z M21.5791533,24.5263243 C20.8523891,24.5263243 20.2633618,25.1153515 20.2633618,25.8421158 L20.5265201,30.5789652 C20.5265201,31.1607818 20.9973367,31.6315984 21.5791533,31.6315984 C22.16097,31.6315984 22.6317865,31.1607818 22.6317865,30.5789652 L22.8949448,25.8421158 C22.8949448,25.1153515 22.3059176,24.5263243 21.5791533,24.5263243 Z M21.5791533,32.4210732 C20.7074415,32.4210732 20.0002035,33.1283112 20.0002035,34.000023 C20.0002035,34.8717349 20.7074415,35.5789728 21.5791533,35.5789728 C22.4508652,35.5789728 23.1581031,34.8717349 23.1581031,34.000023 C23.1581031,33.1283112 22.4508652,32.4210732 21.5791533,32.4210732 Z" id="Page-1"></path>
            </g>
        </g>
    </g>
</svg>