<?xml version="1.0" encoding="UTF-8"?>
<svg width="19px" height="20px" viewBox="0 0 19 20" version="1.1" xmlns="http://www.w3.org/2000/svg" xmlns:xlink="http://www.w3.org/1999/xlink">
    <!-- Generator: Sketch 47 (45396) - http://www.bohemiancoding.com/sketch -->
    <title>grp</title>
    <desc>Created with Sketch.</desc>
    <defs></defs>
    <g id="Page-1" stroke="none" stroke-width="1" fill="none" fill-rule="evenodd" opacity="0.3">
        <g id="dashboard-tile" transform="translate(-589.000000, -638.000000)" fill="#000000">
            <g id="tiles" transform="translate(296.000000, 458.000000)">
                <g id="2" transform="translate(279.000000, 1.000000)">
                    <g id="grp" transform="translate(14.000000, 179.000000)">
                        <path d="M3.96868571,2.33244444 C3.96868571,3.61804444 4.93499048,4.66488889 6.12259894,4.66488889 C7.31024847,4.66488889 8.27733333,3.61888889 8.27733333,2.33244444 C8.27733333,1.04597778 7.31102857,0 6.12259894,0 C4.93494942,0 3.96868571,1.046 3.96868571,2.33244444 Z M6.12259894,1.19355556 C6.7023818,1.19355556 7.17471534,1.70397778 7.17471534,2.33157778 C7.17471534,2.95917778 6.7023818,3.4696 6.12259894,3.4696 C5.54281608,3.4696 5.07128317,2.95917778 5.07128317,2.33157778 C5.07128317,1.70484444 5.54281608,1.19355556 6.12259894,1.19355556 Z" id="Fill-1"></path>
                        <path d="M12.3535915,0 C11.165942,0 10.1988571,1.046 10.1988571,2.33244444 C10.1988571,3.61804444 11.1651619,4.664 12.3535915,4.664 C13.5412411,4.664 14.5075048,3.618 14.5075048,2.33155556 C14.5075048,1.04595556 13.5412,0 12.3535915,0 Z M12.3535915,3.47044444 C11.7738087,3.47044444 11.3014751,2.96002222 11.3014751,2.33242222 C11.3014751,1.70482222 11.7738087,1.1944 12.3535915,1.1944 C12.9333744,1.1944 13.4049073,1.70482222 13.4049073,2.33242222 C13.4049073,2.96002222 12.9333744,3.47044444 12.3535915,3.47044444 Z" id="Fill-2"></path>
                        <path d="M5.16204233,6.94533333 C5.16204233,5.65973333 4.19573757,4.61288889 3.00730794,4.61288889 C1.81965841,4.61288889 0.853394914,5.65888889 0.853394914,6.94533333 C0.853394914,8.2318 1.81969947,9.27777778 3.00730794,9.27777778 C4.1957581,9.27777778 5.16204233,8.23177778 5.16204233,6.94533333 Z M1.9560127,6.94533333 C1.9560127,6.31773333 2.42754561,5.80731111 3.00732847,5.80731111 C3.58711132,5.80731111 4.05944487,6.31773333 4.05944487,6.94533333 C4.05944487,7.57293333 3.58711132,8.08335556 3.00732847,8.08335556 C2.42754561,8.08422444 1.9560127,7.57293333 1.9560127,6.94533333 Z" id="Fill-3"></path>
                        <path d="M4.99041905,18.5633333 L4.99041905,16.5485778 C5.49241714,16.3437156 5.85087577,15.8185333 5.85087577,15.2039556 L5.85087577,12.1579556 C5.85087577,10.8688889 4.88134794,9.81951111 3.69059852,9.81951111 L2.3257418,9.81951111 C1.13488974,9.81951111 0.165464756,10.869 0.165464756,12.1579556 L0.165464756,15.2030667 C0.165464756,15.8176444 0.523122745,16.3428222 1.02592148,16.5476889 L1.02592148,18.5624444 C1.02511961,19.3558453 1.62093672,19.9999564 2.35228593,19.9999564 L3.66341799,19.9999564 C4.3947672,19.9999564 4.99058328,19.3558676 4.99058328,18.5633333 L4.99041905,18.5633333 Z M2.12763598,18.5633333 L2.12763598,15.4462222 L1.49170603,15.4462222 C1.3698145,15.4462222 1.26715873,15.3351111 1.26715873,15.2031556 L1.26796142,12.1580444 C1.26796142,11.5269778 1.74269687,11.0130889 2.32568226,11.0130889 L3.69053898,11.0130889 C4.27352438,11.0130889 4.74825983,11.5269778 4.74825983,12.1580444 L4.74825983,15.2031556 C4.74825983,15.3351 4.64561433,15.4462222 4.52371253,15.4462222 L3.88778258,15.4462222 L3.88778258,18.5633333 C3.88778258,18.6952778 3.78513708,18.8064 3.66323528,18.8064 L2.35210322,18.8064 C2.23101437,18.8064 2.12755592,18.6952889 2.12755592,18.5633333 L2.12763598,18.5633333 Z" id="Fill-4"></path>
                        <path d="M11.3920085,6.94533333 C11.3920085,5.65973333 10.4257037,4.61288889 9.23809524,4.61288889 C8.05048677,4.61288889 7.08418201,5.65888889 7.08418201,6.94533333 C7.08418201,8.2318 8.05048677,9.27777778 9.23809524,9.27777778 C10.4257037,9.27777778 11.3920085,8.23177778 11.3920085,6.94533333 Z M8.1868,6.94533333 C8.1868,6.31773333 8.65833291,5.80731111 9.23811577,5.80731111 C9.81789862,5.80731111 10.2894315,6.31773333 10.2894315,6.94533333 C10.2894315,7.57293333 9.81789862,8.08422222 9.23811577,8.08422222 C8.65833291,8.08422222 8.1868,7.57293333 8.1868,6.94533333 Z" id="Fill-5"></path>
                        <path d="M6.3952254,12.158 L6.3952254,15.2031111 C6.3952254,15.8176889 6.75288339,16.3428667 7.25568212,16.5477333 L7.25568212,18.5624889 C7.25568212,19.3550218 7.85069757,19.9991107 8.58284741,19.9991107 L9.89397947,19.9991107 C10.6261293,19.9991107 11.2211448,19.3550218 11.2211448,18.5624889 L11.2211448,16.5477333 C11.7231429,16.3428711 12.0816015,15.8176889 12.0816015,15.2031111 L12.0807988,12.158 C12.0807988,10.8689333 11.111271,9.81955556 9.92052154,9.81955556 L8.55566483,9.81955556 C7.36481481,9.81955556 6.39538963,10.8681778 6.39538963,12.158 L6.3952254,12.158 Z M7.49786392,12.158 C7.49786392,11.5269333 7.97259937,11.0130444 8.55558476,11.0130444 L9.92044148,11.0130444 C10.5034269,11.0130444 10.9781623,11.5269333 10.9781623,12.158 L10.9781623,15.2031111 C10.9781623,15.3350556 10.8755168,15.4461778 10.753615,15.4461778 L10.1176851,15.4461778 L10.1176851,18.5632889 C10.1176851,18.6952333 10.0150396,18.8063556 9.89313778,18.8063556 L8.58200571,18.8063556 C8.46011418,18.8063556 8.35745841,18.6952444 8.35745841,18.5632889 L8.3582611,15.4461778 L7.72233115,15.4461778 C7.60043962,15.4461778 7.49778385,15.3350667 7.49778385,15.2031111 L7.49786392,12.158 Z" id="Fill-6"></path>
                        <path d="M17.6230011,6.94533333 C17.6230011,5.65973333 16.6566963,4.61288889 15.4690878,4.61288889 C14.2814383,4.61288889 13.3143534,5.65888889 13.3143534,6.94533333 C13.3143534,8.2318 14.2806582,9.27777778 15.4690878,9.27777778 C16.6567374,9.27777778 17.6230011,8.23177778 17.6230011,6.94533333 Z M14.4169714,6.94533333 C14.4169714,6.31773333 14.889305,5.80731111 15.4690878,5.80731111 C16.0488707,5.80731111 16.5204036,6.31773333 16.5204036,6.94533333 C16.5204036,7.57293333 16.0488707,8.08335556 15.4690878,8.08335556 C14.8885043,8.08422444 14.4169714,7.57293333 14.4169714,6.94533333 Z" id="Fill-7"></path>
                        <path d="M12.6253968,12.158 L12.6253968,15.2031111 C12.6253968,15.8176889 12.9838554,16.3428667 13.4858535,16.5477333 L13.4858535,18.5624889 C13.4858535,19.3550218 14.080869,19.9991107 14.8130188,19.9991107 L16.1241509,19.9991107 C16.8563007,19.9991107 17.4513162,19.3550218 17.4513162,18.5624889 L17.4513162,16.5477333 C17.9533143,16.3428711 18.3117729,15.8176889 18.3117729,15.2031111 L18.3109702,12.158 C18.3109702,10.8689333 17.3414424,9.81955556 16.150693,9.81955556 L14.7858363,9.81955556 C13.5949842,9.81955556 12.625559,10.8681778 12.625559,12.158 L12.6253968,12.158 Z M13.7280353,12.158 C13.7280353,11.5269333 14.2027708,11.0130444 14.7857562,11.0130444 L16.1506129,11.0130444 C16.7335983,11.0130444 17.2083338,11.5269333 17.2083338,12.158 L17.2083338,15.2031111 C17.2083338,15.3350556 17.1056883,15.4461778 16.9837865,15.4461778 L16.3478565,15.4461778 L16.3478565,18.5632889 C16.3478565,18.6952333 16.245211,18.8063556 16.1233092,18.8063556 L14.8121771,18.8063556 C14.6902856,18.8063556 14.5876298,18.6952444 14.5876298,18.5632889 L14.5884325,15.4461778 L13.9525026,15.4461778 C13.830611,15.4461778 13.7279553,15.3350667 13.7279553,15.2031111 L13.7280353,12.158 Z" id="Fill-8"></path>
                    </g>
                </g>
            </g>
        </g>
    </g>
</svg>