<?xml version="1.0" encoding="UTF-8"?>
<svg width="30px" height="30px" viewBox="0 0 30 30" version="1.1" xmlns="http://www.w3.org/2000/svg" xmlns:xlink="http://www.w3.org/1999/xlink">
    <!-- Generator: Sketch 47 (45396) - http://www.bohemiancoding.com/sketch -->
    <title>Page 1</title>
    <desc>Created with Sketch.</desc>
    <defs></defs>
    <g id="Symbols" stroke="none" stroke-width="1" fill="none" fill-rule="evenodd">
        <g id="header" transform="translate(-1199.000000, -21.000000)" fill="#000000">
            <g id="Group-4">
                <g id="Group-3" transform="translate(1169.000000, 0.000000)">
                    <g id="Page-1" transform="translate(30.000000, 21.000000)">
                        <path d="M16.0653409,22.4573864 C16.0653409,23.8782955 13.9346591,23.8782955 13.9346591,22.4573864 C13.9346591,21.0364773 16.0653409,21.0364773 16.0653409,22.4573864" id="Fill-1"></path>
                        <path d="M15,0.0852272727 C6.77556818,0.0852272727 0.0852272727,6.77556818 0.0852272727,15 C0.0852272727,23.2244318 6.77556818,29.9147727 15,29.9147727 C23.2244318,29.9147727 29.9147727,23.2244318 29.9147727,15 C29.9147727,6.77556818 23.2244318,0.0852272727 15,0.0852272727 Z M15,2.21590909 C22.0725,2.21590909 27.7840909,7.9275 27.7840909,15 C27.7840909,22.0725 22.0725,27.7840909 15,27.7840909 C7.9275,27.7840909 2.21590909,22.0725 2.21590909,15 C2.21590909,7.9275 7.9275,2.21590909 15,2.21590909 Z" id="Fill-2"></path>
                        <path d="M15,6.47727273 C12.0716591,6.47727273 9.67329545,8.87563636 9.67329545,11.8039773 C9.6693,12.0889568 9.77982955,12.3646023 9.97958182,12.5670341 C10.1806636,12.7707818 10.45365,12.8839739 10.73865,12.8839739 C11.02365,12.8839739 11.2966159,12.7707818 11.4977182,12.5670341 C11.6974705,12.3646193 11.808,12.0889773 11.8040045,11.8039773 C11.8040045,10.0275341 13.2235841,8.60795455 15.0000273,8.60795455 C16.7764705,8.60795455 18.19605,10.0275341 18.19605,11.8039773 C18.19605,13.5804205 16.7764705,15 15.0000273,15 C14.4114136,15 13.9346864,15.4767273 13.9346864,16.0653409 L13.9346864,18.1960227 C13.9306909,18.4810023 14.0412205,18.7566477 14.2409727,18.9590795 C14.4420545,19.1628273 14.7150409,19.2760193 15.0000409,19.2760193 C15.2850409,19.2760193 15.5580068,19.1628273 15.7591091,18.9590795 C15.9588614,18.7566648 16.0693909,18.4810227 16.0653955,18.1960227 L16.0653955,16.9149545 C18.4704068,16.4035909 20.3267591,14.3568068 20.3267591,11.8040455 C20.3267591,8.87570455 17.9283955,6.47734091 15.0000545,6.47734091 L15,6.47727273 Z" id="Fill-3"></path>
                    </g>
                </g>
            </g>
        </g>
    </g>
</svg>