<?xml version="1.0" encoding="UTF-8"?>
<svg width="28px" height="30px" viewBox="0 0 28 30" version="1.1" xmlns="http://www.w3.org/2000/svg" xmlns:xlink="http://www.w3.org/1999/xlink">
    <!-- Generator: Sketch 47 (45396) - http://www.bohemiancoding.com/sketch -->
    <title>Page 1</title>
    <desc>Created with Sketch.</desc>
    <defs></defs>
    <g id="Symbols" stroke="none" stroke-width="1" fill="none" fill-rule="evenodd">
        <g id="header" transform="translate(-927.000000, -23.000000)" fill="#000000">
            <g id="Group-4">
                <g id="Group-2" transform="translate(896.000000, 0.000000)">
                    <path d="M58.7777778,27.3671766 L58.7777778,42.2344191 C58.7777778,42.8008157 58.3360608,43.234413 57.7590577,43.234413 C57.1820547,43.234413 56.7403377,42.8008157 56.7403377,42.2344191 L56.7403377,27.3671766 C56.7403377,26.0677179 55.6539747,24.9999911 54.3288236,24.9999911 L35.4492248,24.9999911 C34.1254321,24.9999911 33.0377107,26.0663846 33.0377107,27.3671766 L33.0377107,45.9010634 C33.0377107,47.2005221 34.1240738,48.2682489 35.4492248,48.2682489 L48.8623719,48.2682489 L47.8436519,47.268255 C47.4364355,46.8685241 47.4364355,46.2343947 47.8436519,45.8685302 C48.2508682,45.4687994 48.8968726,45.4687994 49.2695883,45.8685302 L52.0206757,48.5690471 C52.427892,48.968778 52.427892,49.6029074 52.0206757,49.9687719 L49.3040889,52.7005218 C49.0998152,52.9010406 48.8292296,53 48.5904416,53 C48.3530051,53 48.0810816,52.8997406 47.8767942,52.7005218 C47.4695779,52.3007909 47.4695779,51.6666618 47.8767942,51.3007971 L48.8955143,50.3008032 L35.449089,50.2994998 C33.0044325,50.2994998 31,48.3333785 31,45.9321932 L31.0013264,27.3673066 C31.0013264,24.966288 32.9697994,23 35.4490584,23 L54.3300155,23 C56.8091726,23 58.7777472,24.9661213 58.7777472,27.3673066 L58.7777778,27.3671766 Z M45.8625273,29.1961649 L45.8625273,35.0236416 C46.8990786,35.3113299 47.6666667,36.2081574 47.6666667,37.2976352 C47.6666667,38.6110029 46.5635429,39.6666667 45.1941295,39.6666667 C44.0583879,39.6666667 43.088409,38.9299307 42.7881647,37.9055192 L39.4461756,37.9055192 C39.0780221,37.9055192 38.7777778,37.617831 38.7777778,37.265102 C38.7777778,36.9123602 39.0780354,36.6246848 39.4461756,36.6246848 L42.7881647,36.6246848 C43.0218432,35.8241632 43.6902344,35.2162792 44.4931138,34.9911084 L44.4918105,29.1959728 C44.4918105,28.843231 44.7920681,28.5555556 45.1602083,28.5555556 C45.5283618,28.5555556 45.8625607,28.8432438 45.8625607,29.1959728 L45.8625273,29.1961649 Z M45.3333333,36.3333333 C44.7126491,36.3333333 44.2222222,36.8237602 44.2222222,37.4444444 C44.2222222,38.0651287 44.7126491,38.5555556 45.3333333,38.5555556 C45.9540176,38.5555556 46.4444444,38.0651287 46.4444444,37.4444444 C46.4444444,36.8237602 45.9540176,36.3333333 45.3333333,36.3333333 Z" id="Page-1"></path>
                </g>
            </g>
        </g>
    </g>
</svg>