<?xml version="1.0" encoding="UTF-8"?>
<svg width="25px" height="25px" viewBox="0 0 25 25" version="1.1" xmlns="http://www.w3.org/2000/svg" xmlns:xlink="http://www.w3.org/1999/xlink">
    <!-- Generator: Sketch 47 (45396) - http://www.bohemiancoding.com/sketch -->
    <title>Page 1</title>
    <desc>Created with Sketch.</desc>
    <defs></defs>
    <g id="Page-1" stroke="none" stroke-width="1" fill="none" fill-rule="evenodd" opacity="0.6">
        <g id="create" transform="translate(-964.000000, -205.000000)" fill="#000000">
            <g id="Group-26" transform="translate(781.000000, 170.000000)">
                <g id="Group-25" transform="translate(154.000000, 35.000000)">
                    <g id="Page-1" transform="translate(29.000000, 0.000000)">
                        <path d="M12.5,25 C9.18445122,25 6.00579268,23.6828354 3.66097561,21.3390244 C1.31722561,18.9940854 0,15.8155488 0,12.5 C0,9.18445122 1.31716463,6.00579268 3.66097561,3.66097561 C6.00591463,1.31722561 9.18445122,0 12.5,0 C15.8155488,0 18.9942073,1.31716463 21.3390244,3.66097561 C23.6827744,6.00591463 25,9.18445122 25,12.5 C25,15.8155488 23.6828354,18.9942073 21.3390244,21.3390244 C18.9940854,23.6827744 15.8155488,25 12.5,25 Z M12.5,1.82926829 C9.67036585,1.82926829 6.95609756,2.9535061 4.95426829,4.95426829 C2.9535061,6.95621951 1.82926829,9.67042683 1.82926829,12.5 C1.82926829,15.3295732 2.9535061,18.0439024 4.95426829,20.0457317 C6.95621951,22.0464939 9.67042683,23.1707317 12.5,23.1707317 C15.3295732,23.1707317 18.0439024,22.0464939 20.0457317,20.0457317 C22.0464939,18.0437805 23.1707317,15.3295732 23.1707317,12.5 C23.1707317,9.67042683 22.0464939,6.95609756 20.0457317,4.95426829 C18.0437805,2.9535061 15.3295732,1.82926829 12.5,1.82926829 Z" id="Fill-1"></path>
                        <path d="M12.195122,15.5487805 C11.9688445,15.5452073 11.7509146,15.4582683 11.5853659,15.3046402 L7.31707317,11.3412256 C7.10032317,11.1911677 6.95859756,10.955372 6.92765244,10.6933598 C6.89787805,10.4313537 6.98243598,10.1681463 7.15988415,9.97403049 C7.33733232,9.77871951 7.5910122,9.66915244 7.85418293,9.67391463 C8.11857012,9.6798689 8.36628659,9.79777134 8.53659146,10.0002256 L12.0820183,13.2801037 L17.5698232,6.14870122 L17.5698232,6.14989329 C17.8782683,5.74855183 18.4534817,5.67352134 18.8536341,5.98197256 C19.2549756,6.28922866 19.3300061,6.86444207 19.0215549,7.26459451 L12.9239939,15.1914238 C12.7667927,15.3974543 12.5297866,15.5272774 12.271372,15.5487104 L12.195122,15.5487805 Z" id="Fill-2"></path>
                        <path d="M12.5,3.65853659 C11.995061,3.65853659 11.5853659,3.24884146 11.5853659,2.74390244 L11.5853659,0.914634146 C11.5853659,0.409695122 11.995061,0 12.5,0 C13.004939,0 13.4146341,0.409695122 13.4146341,0.914634146 L13.4146341,2.74390244 C13.4146341,3.24884146 13.004939,3.65853659 12.5,3.65853659 Z" id="Fill-3"></path>
                        <path d="M24.0853659,13.4146341 L22.2560976,13.4146341 C21.7511585,13.4146341 21.3414634,13.004939 21.3414634,12.5 C21.3414634,11.995061 21.7511585,11.5853659 22.2560976,11.5853659 L24.0853659,11.5853659 C24.5903049,11.5853659 25,11.995061 25,12.5 C25,13.004939 24.5903049,13.4146341 24.0853659,13.4146341 Z" id="Fill-4"></path>
                        <path d="M12.5,25 C11.995061,25 11.5853659,24.5903049 11.5853659,24.0853659 L11.5853659,22.2560976 C11.5853659,21.7511585 11.995061,21.3414634 12.5,21.3414634 C13.004939,21.3414634 13.4146341,21.7511585 13.4146341,22.2560976 L13.4146341,24.0853659 C13.4146341,24.5903049 13.004939,25 12.5,25 Z" id="Fill-5"></path>
                        <path d="M2.74390244,13.4146341 L0.914634146,13.4146341 C0.409695122,13.4146341 0,13.004939 0,12.5 C0,11.995061 0.409695122,11.5853659 0.914634146,11.5853659 L2.74390244,11.5853659 C3.24884146,11.5853659 3.65853659,11.995061 3.65853659,12.5 C3.65853659,13.004939 3.24884146,13.4146341 2.74390244,13.4146341 Z" id="Fill-6"></path>
                    </g>
                </g>
            </g>
        </g>
    </g>
</svg>