<?xml version="1.0" encoding="UTF-8"?>
<svg width="15px" height="15px" viewBox="0 0 15 15" version="1.1" xmlns="http://www.w3.org/2000/svg" xmlns:xlink="http://www.w3.org/1999/xlink">
    <!-- Generator: Sketch 47 (45396) - http://www.bohemiancoding.com/sketch -->
    <title>Page 1</title>
    <desc>Created with Sketch.</desc>
    <defs></defs>
    <g id="Page-1" stroke="none" stroke-width="1" fill="none" fill-rule="evenodd">
        <g id="create" transform="translate(-1346.000000, -365.000000)" fill="#FFFFFF">
            <g id="Group-17" transform="translate(20.000000, 355.000000)">
                <g id="head">
                    <path d="M1333.5,10 C1329.35902,10 1326,13.3590217 1326,17.5 C1326,21.6409783 1329.35902,25 1333.5,25 C1337.64098,25 1341,21.6409783 1341,17.5 C1341,13.3590217 1337.64098,10 1333.5,10 Z M1334.6413,20.7933152 C1334.6413,21.2334022 1334.29865,21.5760543 1333.85857,21.5760543 L1333.14143,21.5760543 C1332.70135,21.5760543 1332.3587,21.2334022 1332.3587,20.7933152 L1332.3587,16.4892935 C1332.3587,16.0492065 1332.70135,15.7065543 1333.14143,15.7065543 L1333.85857,15.7065543 C1334.29865,15.7065543 1334.6413,16.0492065 1334.6413,16.4892935 L1334.6413,20.7933152 Z M1334.6413,14.1085326 C1334.6413,14.5486196 1334.29865,14.8912717 1333.85857,14.8912717 L1333.14143,14.8912717 C1332.70135,14.8912717 1332.3587,14.5486196 1332.3587,14.1085326 L1332.3587,13.3914022 C1332.3587,12.9513152 1332.70135,12.608663 1333.14143,12.608663 L1333.85857,12.608663 C1334.29865,12.608663 1334.6413,12.9513152 1334.6413,13.3914022 L1334.6413,14.1085326 Z" id="Page-1"></path>
                </g>
            </g>
        </g>
    </g>
</svg>