<?xml version="1.0" encoding="UTF-8"?>
<svg width="15px" height="22px" viewBox="0 0 15 22" version="1.1" xmlns="http://www.w3.org/2000/svg" xmlns:xlink="http://www.w3.org/1999/xlink">
    <!-- Generator: Sketch 47 (45396) - http://www.bohemiancoding.com/sketch -->
    <title>Page 1</title>
    <desc>Created with Sketch.</desc>
    <defs></defs>
    <g id="Page-1" stroke="none" stroke-width="1" fill="none" fill-rule="evenodd">
        <g id="sign-in" transform="translate(-1067.000000, -540.000000)" fill="#D31145">
            <g id="Group" transform="translate(813.000000, 335.000000)">
                <g id="Group-3" transform="translate(0.000000, 162.000000)">
                    <path d="M261.333333,43 C257.283359,43 254,46.41 254,50.6153846 C254,52.1314103 254.429677,53.8271026 255.163462,55.0136923 L261.333333,65 L267.503205,55.0136923 C268.23589,53.8260026 268.666667,52.1314103 268.666667,50.6153846 C268.666667,46.41 265.383308,43 261.333333,43 Z M261.333333,46.9487179 C263.203023,46.9487179 264.717949,48.4636436 264.717949,50.3333333 C264.717949,52.2030231 263.203023,53.7179487 261.333333,53.7179487 C259.463644,53.7179487 257.948718,52.2030231 257.948718,50.3333333 C257.948718,48.4636436 259.463644,46.9487179 261.333333,46.9487179 Z" id="Page-1"></path>
                </g>
            </g>
        </g>
    </g>
</svg>