<?xml version="1.0" encoding="UTF-8"?>
<svg width="18px" height="15px" viewBox="0 0 18 15" version="1.1" xmlns="http://www.w3.org/2000/svg" xmlns:xlink="http://www.w3.org/1999/xlink">
    <!-- Generator: Sketch 47 (45396) - http://www.bohemiancoding.com/sketch -->
    <title>menu</title>
    <desc>Created with Sketch.</desc>
    <defs></defs>
    <g id="Symbols" stroke="none" stroke-width="1" fill="none" fill-rule="evenodd">
        <g id="dashboard-tile" transform="translate(-229.000000, -10.000000)" fill="#004990">
            <g id="menu" transform="translate(229.000000, 10.000000)">
                <path d="M1.47672,3.02328 L12.96,3.02328 C13.751712,3.02328 14.4,2.374992 14.4,1.58328 C14.4,0.791568 13.751712,0.14328 12.96,0.14328 L1.47672,0.14328 C0.685008,0.14328 0.03672,0.791568 0.03672,1.58328 C0.03672,2.376396 0.683604,3.02328 1.47672,3.02328 Z" id="Fill-1"></path>
                <path d="M12.92328,12.09672 L1.47636,12.09672 C0.684648,12.09672 0.03636,12.745008 0.03636,13.53672 C0.03636,14.328432 0.684648,14.97672 1.47636,14.97672 L12.95964,14.97672 C13.751352,14.97672 14.39964,14.328432 14.39964,13.53672 C14.39964,12.743604 13.716216,12.09672 12.923064,12.09672 L12.92328,12.09672 Z" id="Fill-2"></path>
                <path d="M16.52328,6.12 L1.47636,6.12 C0.684648,6.12 0.03636,6.768288 0.03636,7.56 C0.03636,8.351712 0.684648,9 1.47636,9 L16.55964,9 C17.351352,9 17.99964,8.351712 17.99964,7.56 C17.99964,6.768288 17.316216,6.12 16.523064,6.12 L16.52328,6.12 Z" id="Fill-3"></path>
            </g>
        </g>
    </g>
</svg>