<?xml version="1.0" encoding="UTF-8"?>
<svg width="15px" height="4px" viewBox="0 0 15 4" version="1.1" xmlns="http://www.w3.org/2000/svg" xmlns:xlink="http://www.w3.org/1999/xlink">
    <!-- Generator: Sketch 47 (45396) - http://www.bohemiancoding.com/sketch -->
    <title>Combined Shape</title>
    <desc>Created with Sketch.</desc>
    <defs></defs>
    <g id="Page-1" stroke="none" stroke-width="1" fill="none" fill-rule="evenodd">
        <g id="create" transform="translate(-165.000000, -307.000000)" fill="#004990">
            <g id="Group-22" transform="translate(20.000000, 297.000000)">
                <path d="M146.993537,14.0057317 C145.914634,14.0057317 145,13.0910976 145,12.0121951 C145,10.9332927 145.895976,10.0186585 146.993537,10.0186585 C148.072439,10.0186585 148.987073,10.9332927 148.987073,12.0121951 C148.987073,13.0910976 148.091098,14.0057317 146.993537,14.0057317 Z M152.5,14.0057317 C151.402512,14.0057317 150.506463,13.0910976 150.506463,12.0121951 C150.506463,10.9332927 151.402439,10.0186585 152.5,10.0186585 C153.578902,10.0186585 154.493537,10.9332927 154.493537,12.0121951 C154.493537,13.0910976 153.597561,14.0057317 152.5,14.0057317 Z M158.006463,10.0186585 C159.085366,10.0186585 160,10.9332927 160,12.0121951 C160,13.0910976 159.104024,14.0057317 158.006463,14.0057317 C156.927561,14.0057317 156.012927,13.0910976 156.012927,12.0121951 C156.012927,10.9332927 156.908902,10.0186585 158.006463,10.0186585 Z" id="Combined-Shape"></path>
            </g>
        </g>
    </g>
</svg>