<?xml version="1.0" encoding="UTF-8"?>
<svg width="15px" height="15px" viewBox="0 0 15 15" version="1.1" xmlns="http://www.w3.org/2000/svg" xmlns:xlink="http://www.w3.org/1999/xlink">
    <!-- Generator: Sketch 47 (45396) - http://www.bohemiancoding.com/sketch -->
    <title>Page 1</title>
    <desc>Created with Sketch.</desc>
    <defs></defs>
    <g id="Page-1" stroke="none" stroke-width="1" fill="none" fill-rule="evenodd">
        <g id="create" transform="translate(-927.000000, -552.000000)" fill="#D31145">
            <g id="Group-17" transform="translate(20.000000, 544.000000)">
                <g transform="translate(0.000000, -109.000000)" id="Page-1">
                    <path d="M914.500521,127.0002 C913.121811,127.0002 912.000321,125.87871 912.000321,124.5 C912.000321,123.12129 913.121811,121.9998 914.500521,121.9998 C915.879231,121.9998 917.000721,123.12129 917.000721,124.5 C917.000721,125.87871 915.879231,127.0002 914.500521,127.0002 Z M914.500521,123.2502 C913.810866,123.2502 913.250721,123.810945 913.250721,124.5 C913.250721,125.189655 913.811466,125.7498 914.500521,125.7498 C915.190176,125.7498 915.750321,125.189055 915.750321,124.5 C915.750321,123.810345 915.189576,123.2502 914.500521,123.2502 Z M914.500521,132 C914.250321,132 914.004231,131.987109 913.760481,131.9625 C913.519071,131.938476 913.313406,131.777925 913.232556,131.55 L912.608526,129.79515 C912.430986,129.731868 912.258726,129.661557 912.091731,129.58245 L910.411881,130.38108 C910.193331,130.484205 909.933756,130.454322 909.746841,130.299048 C909.364806,129.985578 909.012666,129.633423 908.699766,129.251388 C908.546841,129.064473 908.514606,128.804898 908.61832,128.586933 L909.41695,126.907083 C909.338434,126.740088 909.267537,126.567828 909.20425,126.390873 L907.45,125.766843 C907.222075,125.685397 907.060345,125.479728 907.0375,125.238918 C907.012891,124.995753 907,124.749663 907,124.499463 C907,124.249263 907.012891,124.003173 907.0375,123.759423 C907.061524,123.518013 907.222075,123.312348 907.45,123.231498 L909.20485,122.606883 C909.268132,122.429928 909.338445,122.257083 909.41755,122.090673 L908.618335,120.410823 C908.514624,120.192273 908.546265,119.933283 908.699781,119.746368 C909.012666,119.364918 909.364821,119.012778 909.746856,118.699293 C909.933771,118.545198 910.192761,118.513548 910.411311,118.617847 L912.091161,119.416477 C912.258156,119.338548 912.430416,119.267064 912.607371,119.203778 L913.232571,117.448927 C913.314016,117.221002 913.519686,117.059273 913.760496,117.036428 C914.247996,116.988375 914.753661,116.988375 915.240576,117.036428 C915.481986,117.060451 915.687651,117.221002 915.768501,117.448927 L916.393116,119.203778 C916.570071,119.26706 916.742916,119.337371 916.909326,119.416477 L918.589176,118.617847 C918.807141,118.513551 919.067301,118.545191 919.253631,118.699293 C919.635081,119.011593 919.987221,119.363748 920.301291,119.746368 C920.454801,119.933283 920.487036,120.192858 920.383323,120.411408 L919.584693,122.091258 C919.663209,122.258253 919.734106,122.430513 919.797393,122.608053 L921.552243,123.232083 C921.780168,123.313529 921.940713,123.519198 921.964743,123.760008 C921.987594,124.003173 922.001076,124.249263 922.001076,124.499463 C922.001076,124.749663 921.98818,124.995753 921.963571,125.239503 C921.939547,125.480913 921.778996,125.686578 921.551071,125.767428 L919.796221,126.392043 C919.732939,126.568998 919.662627,126.741843 919.583521,126.908253 L920.382151,128.588103 C920.485863,128.807238 920.454222,129.066228 920.300119,129.253143 C919.987234,129.634593 919.635079,129.986733 919.253044,130.300218 C919.064959,130.454313 918.805384,130.484793 918.588004,130.38225 L916.908154,129.58362 C916.741159,129.662136 916.568899,129.733034 916.391944,129.79632 L915.767329,131.55117 C915.685884,131.779095 915.480214,131.93964 915.239404,131.96367 C914.996824,131.986521 914.750734,131.999999 914.500534,131.999999 L914.500521,132 Z"></path>
                </g>
            </g>
        </g>
    </g>
</svg>