<?xml version="1.0" encoding="UTF-8"?>
<svg width="19px" height="20px" viewBox="0 0 19 20" version="1.1" xmlns="http://www.w3.org/2000/svg" xmlns:xlink="http://www.w3.org/1999/xlink">
    <!-- Generator: Sketch 47 (45396) - http://www.bohemiancoding.com/sketch -->
    <title>Page 1</title>
    <desc>Created with Sketch.</desc>
    <defs></defs>
    <g id="Page-1" stroke="none" stroke-width="1" fill="none" fill-rule="evenodd">
        <g id="dashboard-tile" transform="translate(-34.000000, -452.000000)" fill="#707070">
            <g id="box-1" transform="translate(21.000000, 427.000000)">
                <path d="M22.2927284,31.2990969 C19.1464827,31.2990969 16.5865549,33.8590247 16.5865549,37.0052704 C16.5865549,40.1515162 19.1464827,42.711444 22.2927284,42.711444 C25.4389742,42.711444 27.998902,40.1515162 27.998902,37.0052704 C27.998902,33.8590247 25.4389742,31.2990969 22.2927284,31.2990969 Z M22.2927284,42.0197866 C19.5274476,42.0197866 17.2782123,39.7705513 17.2782123,37.0052704 C17.2782123,34.2399896 19.5274476,31.9907543 22.2927284,31.9907543 C25.0580093,31.9907543 27.3072446,34.2399896 27.3072446,37.0052704 C27.3072446,39.7705513 25.0580093,42.0197866 22.2927284,42.0197866 Z M22.6385571,36.8337394 L22.6385571,33.547018 C22.6385571,33.3565425 22.483204,33.2011893 22.2927284,33.2011893 C22.1022529,33.2011893 21.9468997,33.3565425 21.9468997,33.547018 L21.9468997,37.005305 C21.9468997,37.1133765 21.9968824,37.2160461 22.0833395,37.280889 L24.8229599,39.3558612 C24.8851019,39.4031429 24.9593997,39.4261059 25.0309966,39.4261059 C25.1363672,39.4261059 25.2390333,39.3788242 25.3065806,39.2896661 C25.4227583,39.1370139 25.3916856,38.9208744 25.2403855,38.8060593 L22.6385571,36.8337394 Z M29.4984152,27.3991866 L27.2005564,27.3991866 L27.2005564,26.2320147 C27.2005564,25.5525305 26.6480259,25 25.9685417,25 C25.2890575,25 24.7365269,25.5525305 24.7365269,26.2320147 L24.7365269,27.3991866 L19.7531354,27.3991866 L19.7531354,26.2320147 C19.7531354,25.5525305 19.2006049,25 18.5211206,25 C17.8416364,25 17.2891059,25.5525305 17.2891059,26.2320147 L17.2891059,27.3991866 L15.0884941,27.3991866 C13.9375416,27.3991866 13,28.3312987 13,29.4768563 L13,42.9223303 C13,44.0678879 13.937507,45 15.0884941,45 L29.4984844,45 C30.6494369,45 31.5869785,44.0678879 31.5869785,42.9223303 L31.5856263,29.4768563 C31.5856263,28.3312987 30.649468,27.3991866 29.4984809,27.3991866 L29.4984152,27.3991866 Z M25.4269739,26.2320147 C25.4269739,25.9348165 25.6687843,25.6916574 25.9673313,25.6916574 C26.2658783,25.6916574 26.5076886,25.9334677 26.5076886,26.2320147 L26.5076886,29.2580159 C26.5076886,29.5552107 26.2658783,29.7983732 25.9673313,29.7983732 C25.6687843,29.7983732 25.4269739,29.5565629 25.4269739,29.2580159 L25.4269739,26.2320147 Z M17.9809362,26.2320147 C17.9809362,25.9348165 18.2227465,25.6916574 18.5212935,25.6916574 C18.8198405,25.6916574 19.0616509,25.9334677 19.0616509,26.2320147 L19.0616509,29.2580159 C19.0616509,29.5552107 18.8198405,29.7983732 18.5212935,29.7983732 C18.2227465,29.7983732 17.9809362,29.5565629 17.9809362,29.2580159 L17.9809362,26.2320147 Z M30.8941799,42.9210162 C30.8941799,43.6856089 30.2673654,44.3070284 29.4973432,44.3070284 L15.0873529,44.3070284 C14.3173307,44.3070284 13.6905162,43.6856089 13.6905162,42.9210162 L13.6918684,29.4769254 C13.6918684,28.7123328 14.3186829,28.0909132 15.0887051,28.0909132 L17.2893168,28.0909132 L17.2893168,29.258085 C17.2893168,29.9375693 17.8418473,30.4900998 18.5213316,30.4900998 C19.2008158,30.4900998 19.7533463,29.9375693 19.7533463,29.258085 L19.7533463,28.0909132 L24.7353546,28.0909132 L24.7353546,29.258085 C24.7353546,29.9375693 25.2878851,30.4900998 25.9673693,30.4900998 C26.6468536,30.4900998 27.1993841,29.9375693 27.1993841,29.258085 L27.1993841,28.0909132 L29.4972429,28.0909132 C30.2672651,28.0909132 30.8940796,28.7123328 30.8940796,29.4769254 L30.8954283,42.9210162 L30.8941799,42.9210162 Z" id="Page-1"></path>
            </g>
        </g>
    </g>
</svg>