<?xml version="1.0" encoding="UTF-8"?>
<svg width="17px" height="17px" viewBox="0 0 17 17" version="1.1" xmlns="http://www.w3.org/2000/svg" xmlns:xlink="http://www.w3.org/1999/xlink">
    <!-- Generator: Sketch 47 (45396) - http://www.bohemiancoding.com/sketch -->
    <title>Page 1</title>
    <desc>Created with Sketch.</desc>
    <defs></defs>
    <g id="Page-1" stroke="none" stroke-width="1" fill="none" fill-rule="evenodd" opacity="0.7">
        <g id="dashboard-tile" transform="translate(-35.000000, -534.000000)" fill="#FFFFFF">
            <g id="box-2" transform="translate(21.000000, 507.000000)">
                <path d="M27.0545415,43.210473 C27.3135255,43.203441 27.5572815,43.085082 27.7225215,42.883533 C27.8877555,42.681969 27.9580695,42.419463 27.9170535,42.161673 L27.1471335,37.428573 L30.5281335,34.053573 L30.5269605,34.0524 C30.7683675,33.812166 30.8539005,33.45591 30.7484445,33.13014 C30.6441465,32.80554 30.3664245,32.56764 30.0324345,32.51607 L25.3308345,31.78833 L23.1968445,27.49923 C23.0456715,27.19338 22.7351145,27 22.3964445,27 C22.0577745,27 21.7472145,27.193359 21.5960445,27.49923 L19.4620545,31.78833 L14.7604545,32.51607 C14.4264645,32.567634 14.1487245,32.805522 14.0444445,33.13014 C13.9389765,33.45591 14.0245245,33.81216 14.2659285,34.0524 L17.6469285,37.4274 L16.8770085,42.160503 L16.8758385,42.161673 C16.8207615,42.499173 16.9590405,42.839013 17.2332585,43.040583 C17.5074765,43.240974 17.8707585,43.269099 18.1719285,43.112067 L22.3965285,40.908927 L26.6211285,43.112067 C26.7547215,43.181208 26.9047215,43.215192 27.0547185,43.210503 L27.0545415,43.210473 Z M25.8568815,40.674543 L22.8064815,39.081963 C22.5486675,38.94837 22.2439815,38.94837 21.9861615,39.081963 L18.9357615,40.674543 L19.4924115,37.256043 L19.4924115,37.25487 C19.5392865,36.965418 19.4431935,36.67128 19.2357705,36.46503 L16.7971005,34.02753 L20.1898005,33.50955 C20.4769095,33.466191 20.7253605,33.28455 20.8554405,33.02205 L22.3964505,29.92485 L23.9374605,33.02205 C24.0675375,33.28455 24.3159705,33.4662 24.6031005,33.50955 L27.9958005,34.02753 L25.5571305,36.46503 C25.3497075,36.67128 25.2536205,36.96543 25.3004895,37.25487 L25.8571395,40.67337 L25.8568815,40.674543 Z" id="Page-1"></path>
            </g>
        </g>
    </g>
</svg>