<?xml version="1.0" encoding="UTF-8"?>
<svg width="19px" height="20px" viewBox="0 0 19 20" version="1.1" xmlns="http://www.w3.org/2000/svg" xmlns:xlink="http://www.w3.org/1999/xlink">
    <!-- Generator: Sketch 47 (45396) - http://www.bohemiancoding.com/sketch -->
    <title>Page 1</title>
    <desc>Created with Sketch.</desc>
    <defs></defs>
    <g id="Page-1" stroke="none" stroke-width="1" fill="none" fill-rule="evenodd" opacity="0.7">
        <g id="dashboard-tile" transform="translate(-34.000000, -613.000000)" fill="#FFFFFF">
            <g id="box-3" transform="translate(21.000000, 587.000000)">
                <path d="M21.4278427,26.0024327 C21.1513862,26.0224519 20.8882791,26.174027 20.7414604,26.4219007 L20.1847404,27.35233 C19.949274,27.7489064 20.0951287,28.2780003 20.4974134,28.5039391 L21.2219402,28.9157684 L20.3601614,30.3876648 C19.4459368,31.9491753 19.6051287,33.8309242 20.6042084,35.2075935 C20.3487156,35.1818539 20.0951507,35.1742274 19.8415614,35.1923406 C18.4001709,35.2924389 17.0284314,36.0741557 16.2494333,37.4040167 L15.5020393,38.6852636 L14.83091,38.3115788 C14.4286229,38.0856449 13.899529,38.2276876 13.6640724,38.6242518 L13.1149666,39.5546811 C12.8795003,39.9512575 13.0177285,40.4727128 13.4200254,40.6986515 L22.6328004,45.8922162 C23.0350876,46.11815 23.5718202,45.9770618 23.8072767,45.5795431 L24.3563825,44.6491139 C24.5918489,44.2515857 24.4536206,43.7310822 24.0513238,43.5051434 L23.326797,43.0933141 L24.0513238,41.857826 C24.9665001,40.294412 24.8092118,38.4145666 23.8072767,37.0378973 C25.5146541,37.2066339 27.2468755,36.4048882 28.1620518,34.8414741 L29.0543365,33.3161803 L29.7178516,33.6898651 C30.1201387,33.9157989 30.6492326,33.7737562 30.8846892,33.377192 L31.433795,32.4467627 C31.6692613,32.0501863 31.5310331,31.5287311 31.1287362,31.3027923 L21.9159611,26.1092276 C21.7653377,26.0243823 21.5937458,25.9900644 21.4278671,26.0024571 L21.4278427,26.0024327 Z M21.5193603,27.0091266 L30.5185943,32.0806678 L30.0991262,32.7899173 L21.0998923,27.7183761 L21.5193603,27.0091266 Z M22.0760804,29.3885851 L28.2001964,32.8357493 L27.3155259,34.3457902 C26.3364825,36.0179028 24.1973371,36.5879723 22.4955972,35.6194228 C20.7938573,34.6508734 20.2276682,32.5554125 21.2067361,30.8834463 L22.0760804,29.3885851 Z M20.2381134,36.1625593 C20.8062793,36.1965764 21.3839874,36.526117 21.9159367,37.2000515 C22.4955484,37.9356901 22.9416908,38.9774276 23.2429424,40.159533 L17.0656242,40.159533 L17.0961301,40.0404734 C17.7691629,37.4764603 18.9874945,36.0860074 20.2382355,36.1625321 L20.2381134,36.1625593 Z M16.4934559,38.9293594 L23.6088909,38.9293594 C23.7785793,39.7971148 23.6651364,40.7279181 23.2123145,41.5657362 L22.4801734,42.9293594 L16.348492,39.1856239 L16.4934559,38.9293594 Z M14.4495621,39.2191652 L23.4412306,44.2831409 L23.0217626,44.9923904 L14.0300941,39.9284147 L14.4495621,39.2191652 Z" id="Page-1"></path>
            </g>
        </g>
    </g>
</svg>