<?xml version="1.0" encoding="UTF-8"?>
<svg width="38px" height="43px" viewBox="0 0 38 43" version="1.1" xmlns="http://www.w3.org/2000/svg" xmlns:xlink="http://www.w3.org/1999/xlink">
    <!-- Generator: Sketch 47 (45396) - http://www.bohemiancoding.com/sketch -->
    <title>Group 7</title>
    <desc>Created with Sketch.</desc>
    <defs></defs>
    <g id="Page-1" stroke="none" stroke-width="1" fill="none" fill-rule="evenodd">
        <g id="reports" transform="translate(-1077.000000, -906.000000)">
            <g id="Group-7" transform="translate(1077.000000, 906.000000)">
                <g id="Page-1" fill="#707070">
                    <path d="M18.614375,4.499375 C18.5899625,4.43955937 18.5533406,4.38706875 18.508175,4.34190312 L14.603175,0.435653125 C14.5580094,0.3904875 14.5055188,0.3550875 14.4457031,0.330671875 C14.3871094,0.306259375 14.3236344,0.29283125 14.2577156,0.29283125 L0.585840625,0.29283125 C0.316065625,0.29283125 0.097559375,0.5113375 0.097559375,0.7811125 L0.097559375,24.2186125 C0.097559375,24.4883875 0.316065625,24.7068938 0.585840625,24.7068938 L18.1639656,24.7068938 C18.4337406,24.7068938 18.6522469,24.4883875 18.6522469,24.2186125 L18.6522469,4.6873625 C18.6522469,4.62266563 18.6388188,4.55796875 18.6144063,4.499375 L18.614375,4.499375 Z M14.7459375,1.9603125 L16.9847188,4.19909375 L14.7459375,4.19909375 L14.7459375,1.9603125 Z M1.0740625,23.7303125 L1.0740625,1.269375 L13.769375,1.269375 L13.769375,4.6875 C13.769375,4.957275 13.9878813,5.17578125 14.2576563,5.17578125 L17.6757812,5.17578125 L17.6757812,23.7304687 L1.0740625,23.7303125 Z" id="Fill-1"></path>
                    <path d="M12.8053125,9.760625 L13.6268437,8.93909375 C13.817275,8.7486625 13.817275,8.4398125 13.6268437,8.2481875 C13.4364125,8.05775625 13.1275625,8.05775625 12.9359375,8.2481875 L12.1144063,9.06971875 C11.4820937,8.56434375 10.7081562,8.2274375 9.8634375,8.13465625 L9.8634375,7.12878125 L10.3517187,7.12878125 C10.6214938,7.12878125 10.84,6.910275 10.84,6.6405 C10.84,6.370725 10.6214938,6.15221875 10.3517187,6.15221875 L8.39859375,6.15221875 C8.12881875,6.15221875 7.9103125,6.370725 7.9103125,6.6405 C7.9103125,6.910275 8.12881875,7.12878125 8.39859375,7.12878125 L8.886875,7.12878125 L8.886875,8.13465625 C6.69328125,8.37879687 4.980625,10.2428125 4.980625,12.4999687 C4.980625,14.9230625 6.9520625,16.8943438 9.375,16.8943438 C11.7979375,16.8943438 13.769375,14.9229062 13.769375,12.4999687 C13.769375,11.4635937 13.4068125,10.5126562 12.8050312,9.76071875 L12.8053125,9.760625 Z M9.375,15.9178125 C7.49025,15.9178125 5.956875,14.384625 5.956875,12.4996875 C5.956875,10.61475 7.4900625,9.0815625 9.375,9.0815625 C11.2599375,9.0815625 12.793125,10.61475 12.793125,12.4996875 C12.793125,14.384625 11.2599375,15.9178125 9.375,15.9178125 Z" id="Fill-2"></path>
                    <path d="M9.375,11.035 C9.105225,11.035 8.88671875,11.2535062 8.88671875,11.5232813 L8.88671875,12.4998438 C8.88671875,12.7696187 9.105225,12.988125 9.375,12.988125 C9.644775,12.988125 9.86328125,12.7696187 9.86328125,12.4998438 L9.86328125,11.5232813 C9.86328125,11.2535062 9.644775,11.035 9.375,11.035 Z" id="Fill-3"></path>
                    <path d="M10.3515625,19.824375 L4.4921875,19.824375 C4.2224125,19.824375 4.00390625,20.0428813 4.00390625,20.3126562 C4.00390625,20.5824312 4.2224125,20.8009375 4.4921875,20.8009375 L10.3515625,20.8009375 C10.6213375,20.8009375 10.8398438,20.5824312 10.8398438,20.3126562 C10.8398438,20.0428813 10.6213375,19.824375 10.3515625,19.824375 Z" id="Fill-4"></path>
                    <path d="M14.2578125,19.824375 L13.28125,19.824375 C13.011475,19.824375 12.7929688,20.0428813 12.7929688,20.3126562 C12.7929688,20.5824312 13.011475,20.8009375 13.28125,20.8009375 L14.2578125,20.8009375 C14.5275875,20.8009375 14.7460938,20.5824312 14.7460938,20.3126562 C14.7460938,20.0428813 14.5275875,19.824375 14.2578125,19.824375 Z" id="Fill-5"></path>
                </g>
                <g id="Page-1-Copy" transform="translate(7.000000, 13.000000)">
                    <path d="M19.2265909,21.3746591 L11.4548864,21.3746591 C10.9435227,21.3746591 10.5679773,21.7155682 10.5679773,22.2269318 C10.5679773,22.7382955 10.9767955,23.0792045 11.4548864,23.0792045 L19.2279545,23.0792045 C19.7393182,23.0792045 20.1148636,22.7382955 20.1148636,22.2269318 C20.1135307,21.7155682 19.7379886,21.3746591 19.226625,21.3746591 L19.2265909,21.3746591 Z" id="Fill-1" fill="#004990"></path>
                    <path d="M19.2265909,24.375 L11.4548864,24.375 C10.9435227,24.375 10.5679773,24.7159091 10.5679773,25.2272727 C10.5679773,25.7386364 10.9767955,26.0795455 11.4548864,26.0795455 L19.2279545,26.0795455 C19.7393182,26.0795455 20.1148636,25.7386364 20.1148636,25.2272727 C20.1135307,24.7159091 19.7379886,24.375 19.226625,24.375 L19.2265909,24.375 Z" id="Fill-2" fill="#004990"></path>
                    <path d="M26.9665909,13.0902273 C26.9665909,14.8174091 24.3751364,14.8174091 24.3751364,13.0902273 C24.3751364,11.3630455 26.9665909,11.3630455 26.9665909,13.0902273" id="Fill-3" fill="#004990"></path>
                    <path d="M9,13 L15,13 L15,2 L8,2 L8,10 L2,10 L2,13 L9,13 Z" id="Combined-Shape" fill="#FFFFFF"></path>
                    <path d="M27.4431818,8.07920455 L24.2045455,8.07920455 L24.2045455,3.54477273 C24.2045455,1.77231818 22.7383636,0.306136364 20.9659091,0.306136364 L9.71590909,0.306136364 C7.94345455,0.306136364 6.47727273,1.77231818 6.47727273,3.54477273 L6.47727273,8.07920455 L3.23863636,8.07920455 C1.46618182,8.07920455 0,9.54538636 0,11.3178409 L0,21.2720455 C0,23.0445 1.46618182,24.5106818 3.23863636,24.5106818 L6.47727273,24.5106818 L6.47727273,26.4535909 C6.47727273,28.2260455 7.94345455,29.6922269 9.71590909,29.6922269 L20.9659091,29.6922269 C22.7383636,29.6922269 24.2045455,28.2260455 24.2045455,26.4535909 L24.2045455,24.5106818 L27.4431818,24.5106818 C29.2156364,24.5106818 30.6818182,23.0445 30.6818182,21.2720455 L30.6818182,11.3178409 C30.6818182,9.54538636 29.2156364,8.07920455 27.4431818,8.07920455 Z M8.65840909,3.54477273 C8.65840909,2.9655 9.13513636,2.45413636 9.74904545,2.45413636 L20.9990455,2.45413636 C21.5783182,2.45413636 22.0896818,2.93086364 22.0896818,3.54477273 L22.0896818,8.07920455 L8.65854545,8.07920455 L8.65840909,3.54477273 Z M22.0230682,26.4548864 C22.0230682,27.0341591 21.5463409,27.5455227 20.9324318,27.5455227 L9.68243182,27.5455227 C9.10315909,27.5455227 8.59179545,27.0687955 8.59179545,26.4548864 L8.5904625,21.03375 C8.5904625,20.4544773 9.06718977,19.9431136 9.68109886,19.9431136 L20.9310989,19.9431136 C21.5103716,19.9431136 22.0217352,20.4198409 22.0217352,21.03375 L22.0230682,26.4548864 Z M28.53375,21.2720455 C28.53375,21.8513182 28.0570227,22.3626818 27.4431136,22.3626818 L24.2044773,22.3640148 L24.2044773,21.0682875 C24.2044773,19.295833 22.7382955,17.8296511 20.9658409,17.8296511 L9.71584091,17.8296511 C7.94338636,17.8296511 6.47720455,19.295833 6.47720455,21.0682875 L6.47720455,22.3640148 L3.23856818,22.3640148 C2.65929545,22.3640148 2.14793182,21.8872875 2.14793182,21.2733784 L2.14793182,11.3178102 C2.14793182,10.7385375 2.62465909,10.2271739 3.23856818,10.2271739 L27.4431136,10.2271739 C28.0223864,10.2271739 28.53375,10.7039011 28.53375,11.3178102 L28.53375,21.2720455 Z" id="Fill-4" fill="#004990"></path>
                </g>
            </g>
        </g>
    </g>
</svg>