<?xml version="1.0" encoding="UTF-8"?>
<svg width="37px" height="43px" viewBox="0 0 37 43" version="1.1" xmlns="http://www.w3.org/2000/svg" xmlns:xlink="http://www.w3.org/1999/xlink">
    <!-- Generator: Sketch 47 (45396) - http://www.bohemiancoding.com/sketch -->
    <title>Group 3</title>
    <desc>Created with Sketch.</desc>
    <defs></defs>
    <g id="Page-1" stroke="none" stroke-width="1" fill="none" fill-rule="evenodd">
        <g id="reports" transform="translate(-1203.000000, -906.000000)">
            <g id="Group-3" transform="translate(1203.000000, 906.000000)">
                <g id="Page-1" fill="#707070">
                    <path d="M19.1666667,0.5205 C19.1666667,0.208 18.95978,0 18.6489712,0 L0.517695441,0 C0.206879254,0 0,0.2080075 0,0.5205 L0,22.03125 C0,23.6454997 1.29473591,25 2.90128262,25 C3.10816933,25 18.338155,24.9482423 18.6489712,24.9482423 C18.9083163,24.9482423 19.1666667,24.7402347 19.1666667,24.4277423 L19.1666667,0.5205 Z M1.03539088,22.03125 L1.03539088,1.042 L18.1817523,1.042 L18.1817523,23.6982497 L7.61400197,19.94825 C6.31926606,19.375 4.92059322,20.3125 4.92059322,21.71875 C4.92059322,22.23925 4.92059322,22.8124995 4.35043201,23.4374995 C3.98814466,23.8017495 3.46945461,24.0107495 2.95175917,24.0107495 C1.86390251,23.9580145 1.03539088,23.0732495 1.03539088,22.03125 Z M15.6437517,23.9062497 L5.23140941,23.9062497 C5.85304178,23.1767497 5.95697872,22.5 5.95697872,21.667 C5.95697872,21.042 6.57861109,20.57325 7.25171462,20.88575 L15.6437517,23.9062497 Z" id="Fill-1"></path>
                    <path d="M3.02785478,5 L16.9721452,5 C17.2890609,5 17.5,4.83364364 17.5,4.58372422 C17.5,4.33380479 17.2890533,4.16744843 16.9721452,4.16744843 L3.02785478,4.16666667 C2.71093908,4.16666667 2.5,4.33302303 2.5,4.58294245 C2.5,4.83364764 2.71094669,4.999998 3.02785478,4.999998 L3.02785478,5 Z" id="Fill-3"></path>
                    <path d="M3.02785478,15 L16.9721452,15 C17.2890609,15 17.5,14.8336436 17.5,14.5837242 C17.5,14.3338048 17.2890533,14.1674484 16.9721452,14.1674484 L3.02785478,14.1666667 C2.71093908,14.1666667 2.5,14.333023 2.5,14.5829424 C2.5,14.8336476 2.71094669,14.999998 3.02785478,14.999998 L3.02785478,15 Z" id="Fill-3-Copy"></path>
                    <path d="M3.02785478,8.33333333 L16.9721452,8.33333333 C17.2890609,8.33333333 17.5,8.16697697 17.5,7.91705755 C17.5,7.66713813 17.2890533,7.50078177 16.9721452,7.50078177 L3.02785478,7.5 C2.71093908,7.5 2.5,7.66635636 2.5,7.91627578 C2.5,8.16698097 2.71094669,8.33333133 3.02785478,8.33333133 L3.02785478,8.33333333 Z" id="Fill-4"></path>
                    <path d="M3.02785478,18.3333333 L16.9721452,18.3333333 C17.2890609,18.3333333 17.5,18.166977 17.5,17.9170576 C17.5,17.6671381 17.2890533,17.5007818 16.9721452,17.5007818 L3.02785478,17.5 C2.71093908,17.5 2.5,17.6663564 2.5,17.9162758 C2.5,18.166981 2.71094669,18.3333313 3.02785478,18.3333313 L3.02785478,18.3333333 Z" id="Fill-4-Copy"></path>
                    <path d="M17.5,11.2507811 C17.5,11.0006218 17.2890533,10.8341158 16.9721452,10.8341158 L3.02785478,10.8333333 C2.71093908,10.8333333 2.5,10.9998454 2.5,11.2499986 C2.5,11.5001519 2.71094669,11.6666639 3.02785478,11.6666639 L16.9721452,11.6666639 C17.2890609,11.6674464 17.5,11.5009344 17.5,11.2507791 L17.5,11.2507811 Z" id="Fill-5"></path>
                </g>
                <g id="Page-1" transform="translate(6.000000, 13.000000)">
                    <path d="M19.2265909,21.3746591 L11.4548864,21.3746591 C10.9435227,21.3746591 10.5679773,21.7155682 10.5679773,22.2269318 C10.5679773,22.7382955 10.9767955,23.0792045 11.4548864,23.0792045 L19.2279545,23.0792045 C19.7393182,23.0792045 20.1148636,22.7382955 20.1148636,22.2269318 C20.1135307,21.7155682 19.7379886,21.3746591 19.226625,21.3746591 L19.2265909,21.3746591 Z" id="Fill-1" fill="#004990"></path>
                    <path d="M19.2265909,24.375 L11.4548864,24.375 C10.9435227,24.375 10.5679773,24.7159091 10.5679773,25.2272727 C10.5679773,25.7386364 10.9767955,26.0795455 11.4548864,26.0795455 L19.2279545,26.0795455 C19.7393182,26.0795455 20.1148636,25.7386364 20.1148636,25.2272727 C20.1135307,24.7159091 19.7379886,24.375 19.226625,24.375 L19.2265909,24.375 Z" id="Fill-2" fill="#004990"></path>
                    <path d="M26.9665909,13.0902273 C26.9665909,14.8174091 24.3751364,14.8174091 24.3751364,13.0902273 C24.3751364,11.3630455 26.9665909,11.3630455 26.9665909,13.0902273" id="Fill-3" fill="#004990"></path>
                    <path d="M9,13 L15,13 L15,2 L8,2 L8,10 L2,10 L2,13 L9,13 Z" id="Combined-Shape" fill="#FFFFFF"></path>
                    <path d="M27.4431818,8.07920455 L24.2045455,8.07920455 L24.2045455,3.54477273 C24.2045455,1.77231818 22.7383636,0.306136364 20.9659091,0.306136364 L9.71590909,0.306136364 C7.94345455,0.306136364 6.47727273,1.77231818 6.47727273,3.54477273 L6.47727273,8.07920455 L3.23863636,8.07920455 C1.46618182,8.07920455 0,9.54538636 0,11.3178409 L0,21.2720455 C0,23.0445 1.46618182,24.5106818 3.23863636,24.5106818 L6.47727273,24.5106818 L6.47727273,26.4535909 C6.47727273,28.2260455 7.94345455,29.6922269 9.71590909,29.6922269 L20.9659091,29.6922269 C22.7383636,29.6922269 24.2045455,28.2260455 24.2045455,26.4535909 L24.2045455,24.5106818 L27.4431818,24.5106818 C29.2156364,24.5106818 30.6818182,23.0445 30.6818182,21.2720455 L30.6818182,11.3178409 C30.6818182,9.54538636 29.2156364,8.07920455 27.4431818,8.07920455 Z M8.65840909,3.54477273 C8.65840909,2.9655 9.13513636,2.45413636 9.74904545,2.45413636 L20.9990455,2.45413636 C21.5783182,2.45413636 22.0896818,2.93086364 22.0896818,3.54477273 L22.0896818,8.07920455 L8.65854545,8.07920455 L8.65840909,3.54477273 Z M22.0230682,26.4548864 C22.0230682,27.0341591 21.5463409,27.5455227 20.9324318,27.5455227 L9.68243182,27.5455227 C9.10315909,27.5455227 8.59179545,27.0687955 8.59179545,26.4548864 L8.5904625,21.03375 C8.5904625,20.4544773 9.06718977,19.9431136 9.68109886,19.9431136 L20.9310989,19.9431136 C21.5103716,19.9431136 22.0217352,20.4198409 22.0217352,21.03375 L22.0230682,26.4548864 Z M28.53375,21.2720455 C28.53375,21.8513182 28.0570227,22.3626818 27.4431136,22.3626818 L24.2044773,22.3640148 L24.2044773,21.0682875 C24.2044773,19.295833 22.7382955,17.8296511 20.9658409,17.8296511 L9.71584091,17.8296511 C7.94338636,17.8296511 6.47720455,19.295833 6.47720455,21.0682875 L6.47720455,22.3640148 L3.23856818,22.3640148 C2.65929545,22.3640148 2.14793182,21.8872875 2.14793182,21.2733784 L2.14793182,11.3178102 C2.14793182,10.7385375 2.62465909,10.2271739 3.23856818,10.2271739 L27.4431136,10.2271739 C28.0223864,10.2271739 28.53375,10.7039011 28.53375,11.3178102 L28.53375,21.2720455 Z" id="Fill-4" fill="#004990"></path>
                </g>
            </g>
        </g>
    </g>
</svg>