<?xml version="1.0" encoding="UTF-8"?>
<svg width="15px" height="13px" viewBox="0 0 15 13" version="1.1" xmlns="http://www.w3.org/2000/svg" xmlns:xlink="http://www.w3.org/1999/xlink">
    <!-- Generator: Sketch 47 (45396) - http://www.bohemiancoding.com/sketch -->
    <title>Page 1</title>
    <desc>Created with Sketch.</desc>
    <defs></defs>
    <g id="Page-1" stroke="none" stroke-width="1" fill="none" fill-rule="evenodd">
        <g id="dashboard-tile" transform="translate(-476.000000, -1101.000000)" fill="#58B6AF">
            <g id="tiles" transform="translate(296.000000, 458.000000)">
                <g id="9" transform="translate(0.000000, 461.000000)">
                    <g id="status" transform="translate(180.000000, 175.000000)">
                        <path d="M6.17408772,19.7865334 C6.48818147,20.0850074 6.97669423,20.0678634 7.30781127,19.7515394 C7.60418405,19.4352188 7.58716075,18.9432427 7.27306352,18.6276248 L2.79066942,14.4825051 L14.2151145,14.4825051 C14.651162,14.4825051 15,14.131194 15,13.6920551 C15,13.2529162 14.651162,12.9016051 14.2151145,12.9016051 L2.70345992,12.9016051 L7.25614487,8.33456064 C7.57023862,8.01824012 7.57023862,7.52626404 7.25614487,7.21064614 C7.09943986,7.06998469 6.90730686,7 6.69814358,7 C6.5060036,7 6.29684033,7.0699882 6.14014229,7.22849275 L0.243907541,13.1472067 C0.0872025274,13.3050226 0,13.4985178 0,13.7270105 C0,13.9376567 0.104923499,14.1311588 0.261628512,14.2711387 L6.17408772,19.7865334 Z" id="Page-1" transform="translate(7.500000, 13.500000) scale(-1, -1) translate(-7.500000, -13.500000) "></path>
                    </g>
                </g>
            </g>
        </g>
    </g>
</svg>