<?xml version="1.0" encoding="UTF-8"?>
<svg width="20px" height="25px" viewBox="0 0 20 25" version="1.1" xmlns="http://www.w3.org/2000/svg" xmlns:xlink="http://www.w3.org/1999/xlink">
    <!-- Generator: Sketch 47 (45396) - http://www.bohemiancoding.com/sketch -->
    <title>Page 1</title>
    <desc>Created with Sketch.</desc>
    <defs></defs>
    <g id="Page-1" stroke="none" stroke-width="1" fill="none" fill-rule="evenodd">
        <g id="create" transform="translate(-1379.000000, -562.000000)" fill="#D31145">
            <g id="Group-17" transform="translate(20.000000, 544.000000)">
                <g transform="translate(0.000000, -109.000000)" id="Page-1">
                    <g transform="translate(1359.000000, 127.000000)">
                        <path d="M1.68633721,9.53517442 L1.68633721,19.6799419 C1.68633721,22.5573837 4.04145349,24.9124991 6.91889535,24.9124991 L12.2671512,24.9124991 C15.144593,24.9124991 17.4997093,22.5573837 17.4997093,19.6799419 L17.4997093,9.53517442 C18.4876163,8.98331395 19.1859884,7.93633721 19.1859884,6.71563953 C19.1859884,4.9419186 17.7325,3.48831395 15.9586628,3.48831395 L14.1270349,3.48831395 C14.1270349,1.62831395 12.5861047,0.0874418605 10.7261628,0.0874418605 L8.48802326,0.0874418605 C6.62802326,0.0874418605 5.08715116,1.59883721 5.08715116,3.48831395 L3.25552326,3.48831395 C1.45343023,3.48831395 0,4.94180233 0,6.71563953 C0,7.93633721 0.697209302,8.98218023 1.68627907,9.53517442 L1.68633721,9.53517442 Z M12.2671512,22.5869186 L6.91889535,22.5869186 C5.32005814,22.5869186 4.0119186,21.2787791 4.0119186,19.6799419 L4.0119186,9.94156977 L15.1741279,9.94156977 L15.1741279,19.6799419 C15.1741279,21.2787791 13.8659884,22.5869186 12.2671512,22.5869186 Z M8.45959302,2.41307849 L10.6977326,2.41307849 C11.2791279,2.41307849 11.7730814,2.87865988 11.7730814,3.48842733 L7.38296512,3.48842733 C7.41248837,2.90703198 7.87805233,2.41307849 8.45944767,2.41307849 L8.45959302,2.41307849 Z M3.22703488,5.81395349 L15.9598837,5.81395349 C16.4538372,5.81395349 16.8615116,6.22046512 16.8615116,6.7155814 C16.8615116,7.20953488 16.455,7.6172093 15.9598837,7.6172093 L3.22703488,7.61607267 C2.7330814,7.61607267 2.32540698,7.20956105 2.32540698,6.71444477 C2.32540698,6.22049128 2.7319186,5.81395058 3.22703488,5.81395058 L3.22703488,5.81395349 Z" id="Fill-1"></path>
                        <polygon id="Fill-2" points="11.4247093 20.3488372 13.7502907 20.3488372 13.7502907 11.8607558 11.4247093 11.8607558"></polygon>
                        <polygon id="Fill-3" points="8.43023256 20.3488372 10.755814 20.3488372 10.755814 11.8607558 8.43023256 11.8607558"></polygon>
                        <polygon id="Fill-4" points="5.43575581 20.3488372 7.76133721 20.3488372 7.76133721 11.8607558 5.43575581 11.8607558"></polygon>
                    </g>
                </g>
            </g>
        </g>
    </g>
</svg>