<?xml version="1.0" encoding="UTF-8"?>
<svg width="23px" height="30px" viewBox="0 0 23 30" version="1.1" xmlns="http://www.w3.org/2000/svg" xmlns:xlink="http://www.w3.org/1999/xlink">
    <!-- Generator: Sketch 47 (45396) - http://www.bohemiancoding.com/sketch -->
    <title>Page 1</title>
    <desc>Created with Sketch.</desc>
    <defs></defs>
    <g id="Symbols" stroke="none" stroke-width="1" fill="none" fill-rule="evenodd">
        <g id="header" transform="translate(-1020.000000, -21.000000)" fill="#000000">
            <g id="Group-4">
                <g id="reports" transform="translate(987.000000, 0.000000)">
                    <g id="Page-1" transform="translate(33.000000, 21.000000)">
                        <path d="M23,0.6246 C23,0.2496 22.7517359,0 22.3787655,0 L0.621234529,0 C0.248255105,0 0,0.249609 0,0.6246 L0,26.4375 C0,28.3745997 1.55368309,30 3.48153914,30 C3.7298032,30 22.005786,29.9378908 22.3787655,29.9378908 C22.6899795,29.9378908 23,29.6882817 23,29.3132907 L23,0.6246 Z M1.24246906,26.4375 L1.24246906,1.2504 L21.8181028,1.2504 L21.8181028,28.4378997 L9.13680237,23.9379 C7.58311928,23.25 5.90471187,24.375 5.90471187,26.0625 C5.90471187,26.6871 5.90471187,27.3749994 5.22051841,28.1249994 C4.78577359,28.5620994 4.16334553,28.8128994 3.542111,28.8128994 C2.23668301,28.7496174 1.24246906,27.6878994 1.24246906,26.4375 Z M18.772502,28.6874997 L6.27769129,28.6874997 C7.02365014,27.8120997 7.14837446,27 7.14837446,26.0004 C7.14837446,25.2504 7.89433331,24.6879 8.70205755,25.0629 L18.772502,28.6874997 Z" id="Fill-1"></path>
                        <path d="M3.63342573,6 L20.3665743,6 C20.7468731,6 21,5.80037237 21,5.50046906 C21,5.20056575 20.746864,5.00093812 20.3665743,5.00093812 L3.63342573,5 C3.2531269,5 3,5.19962763 3,5.49953094 C3,5.80037717 3.25313603,5.9999976 3.63342573,5.9999976 L3.63342573,6 Z" id="Fill-3"></path>
                        <path d="M3.63342573,18 L20.3665743,18 C20.7468731,18 21,17.8003724 21,17.5004691 C21,17.2005658 20.746864,17.0009381 20.3665743,17.0009381 L3.63342573,17 C3.2531269,17 3,17.1996276 3,17.4995309 C3,17.8003772 3.25313603,17.9999976 3.63342573,17.9999976 L3.63342573,18 Z" id="Fill-3-Copy"></path>
                        <path d="M3.63342573,10 L20.3665743,10 C20.7468731,10 21,9.80037237 21,9.50046906 C21,9.20056575 20.746864,9.00093812 20.3665743,9.00093812 L3.63342573,9 C3.2531269,9 3,9.19962763 3,9.49953094 C3,9.80037717 3.25313603,9.9999976 3.63342573,9.9999976 L3.63342573,10 Z" id="Fill-4"></path>
                        <path d="M3.63342573,22 L20.3665743,22 C20.7468731,22 21,21.8003724 21,21.5004691 C21,21.2005658 20.746864,21.0009381 20.3665743,21.0009381 L3.63342573,21 C3.2531269,21 3,21.1996276 3,21.4995309 C3,21.8003772 3.25313603,21.9999976 3.63342573,21.9999976 L3.63342573,22 Z" id="Fill-4-Copy"></path>
                        <path d="M21,13.5009374 C21,13.2007462 20.746864,13.000939 20.3665743,13.000939 L3.63342573,13 C3.2531269,13 3,13.1998144 3,13.4999984 C3,13.8001823 3.25313603,13.9999967 3.63342573,13.9999967 L20.3665743,13.9999967 C20.7468731,14.0009357 21,13.8011213 21,13.5009349 L21,13.5009374 Z" id="Fill-5"></path>
                    </g>
                </g>
            </g>
        </g>
    </g>
</svg>