<?xml version="1.0" encoding="UTF-8"?>
<svg width="25px" height="25px" viewBox="0 0 25 25" version="1.1" xmlns="http://www.w3.org/2000/svg" xmlns:xlink="http://www.w3.org/1999/xlink">
    <!-- Generator: Sketch 47 (45396) - http://www.bohemiancoding.com/sketch -->
    <title>Page 1</title>
    <desc>Created with Sketch.</desc>
    <defs></defs>
    <g id="Page-1" stroke="none" stroke-width="1" fill="none" fill-rule="evenodd" opacity="0.6">
        <g id="create" transform="translate(-817.000000, -205.000000)" fill="#000000">
            <g id="Group-26" transform="translate(781.000000, 170.000000)">
                <g id="Group-24" transform="translate(10.000000, 35.000000)">
                    <g id="Page-1" transform="translate(26.000000, 0.000000)">
                        <path d="M24.4795,25 L0.52149975,25 C0.36524975,25 0.217799625,24.930665 0.11817465,24.80957 C0.0195421425,24.688475 -0.0204978575,24.53027 0.0097771425,24.376945 L0.72365225,20.811445 C0.96290975,19.611245 1.783227,18.618095 2.9150525,18.153195 L7.1993025,16.397345 C7.3994975,16.315315 7.6329025,16.3670725 7.7803525,16.5272275 C9.0948025,17.9598525 10.7706025,18.7498775 12.5001025,18.7498775 C14.2296025,18.7498775 15.9053525,17.9598275 17.2188525,16.5272275 C17.3653375,16.3670725 17.5997025,16.3143375 17.7999025,16.397345 L22.0841525,18.153195 C23.2159775,18.618045 24.0363025,19.611195 24.2755525,20.811445 L24.9894275,24.376945 C25.0197,24.530265 24.97966,24.68847 24.88103,24.80957 C24.7833725,24.930665 24.6359125,25 24.479655,25 L24.4795,25 Z M1.15625,23.958 L23.84375,23.958 L23.254875,21.0155 C23.083,20.158075 22.49805,19.4491 21.68945,19.116075 L17.73445,17.494 C16.25985,18.97935 14.4132,19.79185 12.49995,19.79185 C10.5867,19.79185 8.7402,18.97935 7.26545,17.49595 L3.31045,19.118025 C2.50185,19.449075 1.91690025,20.160025 1.74502525,21.01745 L1.15625,23.958 Z" id="Fill-1"></path>
                        <path d="M12.5,17.708 C9.9335,17.708 7.65325,15.63475 6.706,12.498 C5.8476,12.4462425 5.20795,11.344675 5.20795,9.8955 L5.20795,9.62305 C5.2040425,8.65625 5.201115,7.957025 5.60345,7.553725 C5.7743475,7.38185 5.997975,7.292 6.249925,7.292 C6.53605,7.292 6.76555,7.523445 6.7675,7.809575 C6.7684775,8.070325 6.576095,8.287125 6.3261,8.32715 C6.245045,8.54297 6.247975,9.1582 6.2499275,9.61915 L6.2499275,9.895525 C6.2499275,10.904325 6.6405525,11.458025 6.7704275,11.458025 C6.91203,11.3691575 7.1024525,11.34572 7.2567525,11.407245 C7.41105,11.4707225 7.5409275,11.59084 7.5819525,11.75197 C8.3114525,14.69147 10.2869525,16.66697 12.4999525,16.66697 C14.7129525,16.66697 16.6884525,14.69237 17.4179525,11.75197 C17.4589675,11.5908375 17.573225,11.45802 17.7265525,11.39552 C17.88085,11.33302 18.0556525,11.3476675 18.1972525,11.43556 C18.36815,11.45802 18.7499775,10.90431 18.7499775,9.89551 L18.7499775,9.61816 C18.75193,9.15821 18.753885,8.541985 18.673805,8.32616 C18.42283,8.28612 18.230455,8.069335 18.232405,7.808585 C18.2343575,7.52246 18.46385,7.291985 18.74998,7.291985 C19.00193,7.291985 19.225555,7.382805 19.396455,7.554685 C19.798805,7.957035 19.79588,8.656235 19.791955,9.623035 L19.791955,9.895485 C19.791955,11.34471 19.152305,12.445235 18.293905,12.497985 C17.34663,15.635735 15.066405,17.707985 12.499905,17.707985 L12.5,17.708 Z" id="Fill-2"></path>
                        <path d="M12.5,5.208 C11.350575,5.208 10.417,4.273425 10.417,3.125 L10.417,1.042 C10.417,0.8837975 10.489265,0.734375 10.61329,0.634775 C10.64454,0.6084075 11.41799,0 12.500015,0 C13.58204,0 14.35549,0.6084 14.38869,0.634775 C14.5117375,0.734385 14.583025,0.8837975 14.583025,1.042 L14.583025,3.125 C14.583025,4.274425 13.649425,5.208 12.500025,5.208 L12.5,5.208 Z M11.458,1.32525 L11.458,3.12505 C11.458,3.699275 11.925775,4.16705 12.5,4.16705 C13.074225,4.16705 13.542,3.699275 13.542,3.12505 L13.542,1.32525 C13.32618,1.2051325 12.949225,1.04205 12.5,1.04205 C12.050775,1.04205 11.6748,1.205135 11.458,1.32525 Z" id="Fill-3"></path>
                        <path d="M13.61025,10.417 L11.38955,10.417 C10.31435,10.417 9.26455,10.116225 8.3533,9.5459 L5.4528,7.7334 C5.29362,7.63379 5.199875,7.455075 5.2076825,7.2666 C5.2174475,7.0781225 5.3268225,6.91015 5.4947825,6.826175 L6.2545575,6.447275 C6.36198,3.103525 8.1354075,1.042025 10.9370575,1.042025 C11.2241575,1.042025 11.4575575,1.2754225 11.4575575,1.562525 C11.4575575,1.8496275 11.22416,2.083025 10.9370575,2.083025 C7.5533075,2.083025 7.2915575,5.671025 7.2915575,6.770525 C7.2915575,6.96779 7.18023,7.147475 7.0044575,7.23635 L6.7925425,7.34182 L8.9048425,8.66312 C9.6509425,9.128945 10.5093425,9.375045 11.3892175,9.375045 L13.6099175,9.375045 C14.4897925,9.375045 15.3481925,9.12895 16.0942925,8.662145 L18.2065925,7.340845 L17.9946775,7.235375 C17.8188975,7.147485 17.7075775,6.9678 17.7075775,6.770525 C17.7075775,5.670925 17.4458525,2.083025 14.0620775,2.083025 C13.7749775,2.083025 13.5415775,1.8496275 13.5415775,1.562525 C13.5415775,1.2754225 13.774975,1.042025 14.0620775,1.042025 C16.8638275,1.042025 18.6373275,3.10355 18.7445775,6.446275 L19.5043525,6.825175 C19.671345,6.910135 19.7817025,7.0781 19.7914525,7.266575 C19.8002425,7.4550525 19.7074675,7.632775 19.5473125,7.733375 L16.6468125,9.545875 C15.7347125,10.1152 14.6848875,10.416975 13.6098125,10.416975 L13.61025,10.417 Z" id="Fill-4"></path>
                        <path d="M12.5,10.417 C10.77735,10.417 9.375,9.01465 9.375,7.292 C9.375,5.56935 10.77735,4.167 12.5,4.167 C14.22265,4.167 15.625,5.56935 15.625,7.292 C15.625,9.01465 14.22265,10.417 12.5,10.417 Z M12.5,5.208 C11.350575,5.208 10.417,6.142575 10.417,7.291 C10.417,8.440425 11.351575,9.374 12.5,9.374 C13.649425,9.374 14.583,8.439425 14.583,7.291 C14.583,6.142575 13.6494,5.208 12.5,5.208 Z" id="Fill-5"></path>
                        <path d="M4.6875,25 C4.4004,25 4.167,24.7666025 4.167,24.4795 L4.167,18.2295 C4.167,17.941425 4.4003975,17.708025 4.6875,17.708025 C4.9746025,17.708025 5.208,17.9414225 5.208,18.2295 L5.208,24.4795 C5.208,24.7666 4.9746025,25 4.6875,25 Z" id="Fill-6"></path>
                        <path d="M6.7705,25 C6.4834,25 6.25,24.7666025 6.25,24.4795 L6.25,17.1875 C6.25,16.9004 6.4833975,16.667 6.7705,16.667 C7.058575,16.667 7.291975,16.9003975 7.291975,17.1875 L7.291975,24.4795 C7.291975,24.7666 7.0585775,25 6.7705,25 Z" id="Fill-7"></path>
                        <path d="M18.2295,24.4794998 C17.9424,24.4794998 17.709,24.2461023 17.709,23.9589998 L17.709,17.1885 C17.709,16.9014 17.9423975,16.668 18.2295,16.668 C18.5166,16.668 18.75,16.9013975 18.75,17.1885 L18.75,23.9579995 C18.75,24.2460745 18.5166025,24.4794745 18.2295,24.4794745 L18.2295,24.4794998 Z" id="Fill-8"></path>
                        <path d="M20.3125,25 C20.0254,25 19.792,24.7666025 19.792,24.4795 L19.792,18.2295 C19.792,17.9424 20.0253975,17.709 20.3125,17.709 C20.5996025,17.709 20.833,17.9423975 20.833,18.2295 L20.833,24.4795 C20.833,24.7666 20.5996025,25 20.3125,25 Z" id="Fill-9"></path>
                    </g>
                </g>
            </g>
        </g>
    </g>
</svg>