<?xml version="1.0" encoding="UTF-8"?>
<svg width="25px" height="25px" viewBox="0 0 25 25" version="1.1" xmlns="http://www.w3.org/2000/svg" xmlns:xlink="http://www.w3.org/1999/xlink">
    <!-- Generator: Sketch 47 (45396) - http://www.bohemiancoding.com/sketch -->
    <title>Page 1</title>
    <desc>Created with Sketch.</desc>
    <defs></defs>
    <g id="Page-1" stroke="none" stroke-width="1" fill="none" fill-rule="evenodd" fill-opacity="0.5">
        <g id="dashboard-tile" transform="translate(-1078.000000, -138.000000)" fill="#373737">
            <g id="search" transform="translate(0.000000, 90.000000)">
                <g transform="translate(27.000000, 33.000000)" id="Page-1">
                    <path d="M1076,38.7926457 L1069.06873,31.8630999 C1072.46868,27.8174643 1072.29718,21.7911959 1068.50879,18.0027171 C1064.50517,13.9990943 1058.00643,13.9990943 1054.00272,18.0027171 C1049.99909,22.0063398 1049.99909,28.5050812 1054.00272,32.50879 C1055.98352,34.4895949 1058.65212,35.5220103 1061.27663,35.5220103 C1063.64416,35.5220103 1065.96778,34.7048249 1067.90485,33.1107453 L1074.83612,40.0420129 L1076,38.7926457 Z M1055.20835,31.3035019 C1051.89415,27.9893039 1051.89415,22.5647326 1055.20835,19.2506207 C1056.88645,17.5725153 1059.03876,16.7536081 1061.23479,16.7536081 C1063.43083,16.7536081 1065.62505,17.5707935 1067.26123,19.2506207 C1070.57543,22.5648187 1070.57543,27.98939 1067.26123,31.3035019 C1063.94703,34.6176137 1058.52246,34.6176998 1055.20835,31.3035019 Z"></path>
                </g>
            </g>
        </g>
    </g>
</svg>