<?xml version="1.0" encoding="UTF-8"?>
<svg width="20px" height="17px" viewBox="0 0 20 17" version="1.1" xmlns="http://www.w3.org/2000/svg" xmlns:xlink="http://www.w3.org/1999/xlink">
    <!-- Generator: Sketch 47 (45396) - http://www.bohemiancoding.com/sketch -->
    <title>Page 1</title>
    <desc>Created with Sketch.</desc>
    <defs></defs>
    <g id="Page-1" stroke="none" stroke-width="1" fill="none" fill-rule="evenodd">
        <g id="dashboard-tile" transform="translate(-1197.000000, -382.000000)" fill="#FFFFFF">
            <g id="filter" transform="translate(1182.000000, 373.000000)">
                <g id="Page-1" transform="translate(15.000000, 9.000000)">
                    <path d="M10.7407407,0.740740741 L12.962963,0.740740741 L12.962963,6.66666667 L10.7407407,6.66666667 L10.7407407,16.2962963 L9.25925926,16.2962963 L9.25925926,6.66666667 L7.03703704,6.66666667 L7.03703704,0.740740741 L9.25925926,0.740740741 L9.25925926,0 L10.7407407,0 L10.7407407,0.740740741 Z M8.51851852,5.18518519 L11.4814815,5.18518519 L11.4814815,2.22222222 L8.51851852,2.22222222 L8.51851852,5.18518519 Z" id="Fill-1"></path>
                    <path d="M3.7037037,9.62962963 L5.92592593,9.62962963 L5.92592593,15.5555556 L3.7037037,15.5555556 L3.7037037,16.2962963 L2.22222222,16.2962963 L2.22222222,15.5555556 L0,15.5555556 L0,9.62962963 L2.22222222,9.62962963 L2.22222222,0 L3.7037037,0 L3.7037037,9.62962963 Z M1.48148148,11.1111111 L1.48148148,14.0740741 L4.44444444,14.0740741 L4.44444444,11.1111111 L1.48148148,11.1111111 Z" id="Fill-2"></path>
                    <path d="M17.7777778,6.2962963 L20,6.2962963 L20,12.2222222 L17.7777778,12.2222222 L17.7777778,16.2962963 L16.2962963,16.2962963 L16.2962963,12.2222222 L14.0740741,12.2222222 L14.0740741,6.2962963 L16.2962963,6.2962963 L16.2962963,0 L17.7777778,0 L17.7777778,6.2962963 Z M15.5555556,10.7407407 L18.5185185,10.7407407 L18.5185185,7.77777778 L15.5555556,7.77777778 L15.5555556,10.7407407 Z" id="Fill-3"></path>
                </g>
            </g>
        </g>
    </g>
</svg>