<?xml version="1.0" encoding="UTF-8"?>
<svg width="34px" height="35px" viewBox="0 0 34 35" version="1.1" xmlns="http://www.w3.org/2000/svg" xmlns:xlink="http://www.w3.org/1999/xlink">
    <!-- Generator: Sketch 47 (45396) - http://www.bohemiancoding.com/sketch -->
    <title>Group 10 Copy 2</title>
    <desc>Created with Sketch.</desc>
    <defs></defs>
    <g id="Page-1" stroke="none" stroke-width="1" fill="none" fill-rule="evenodd">
        <g id="create" transform="translate(-837.000000, -614.000000)" fill="#D31145">
            <g id="Group-17" transform="translate(20.000000, 355.000000)">
                <g id="Group-10-Copy-2" transform="translate(817.000000, 259.000000)">
                    <path d="M24.9945123,14.5730592 C24.9945123,13.3601467 24.5139753,12.1954343 23.6565267,11.3379857 C22.7990781,10.4805371 21.6343656,10 20.4214531,10 L4.57305919,10 C2.04717568,10 0,12.0471757 0,14.5730592 L0,30.4269408 C0,31.6398533 0.48053706,32.8027822 1.33798566,33.6602308 C2.19543426,34.5176794 3.3601467,35 4.57305919,35 L20.4214531,35 C21.6343656,35 22.7990781,34.5176794 23.6565267,33.6602308 C24.5139753,32.8027822 24.9945123,31.6398533 24.9945123,30.4269408 L24.9945123,14.5730592 Z M4.57305919,33.1707763 C4.39263829,33.1707763 4.21400088,33.1511259 4.03714239,33.1154011 C6.40228287,30.444826 9.36932941,28.9996479 12.5027896,28.9996479 C15.6360668,28.9996479 18.6032505,30.462661 20.9684367,33.1154011 L20.9666533,33.1154011 C20.791592,33.1511305 20.6111711,33.1707763 20.4325199,33.1707763 L4.57305919,33.1707763 Z M8.58340345,21.9526048 C8.59233921,20.3699148 9.55339504,18.9479677 11.0181916,18.3477537 C12.4847717,17.7493232 14.1675203,18.0905191 15.2822035,19.2141198 C16.3986702,20.3377204 16.7291651,22.0222525 16.1182044,23.4834821 C15.5090729,24.9464952 14.079992,25.8968226 12.4972562,25.8950391 C10.3268365,25.8878915 8.57265676,24.1229787 8.57800724,21.9525591 L8.58340345,21.9526048 Z M23.1705522,30.4269408 C23.1705522,31.0557364 22.954402,31.6666514 22.5578538,32.1561059 C20.3177865,29.5176794 17.5274887,27.861729 14.5604833,27.3365589 L14.5604833,27.3347708 C17.147097,26.3433316 18.6583559,23.6459583 18.1546334,20.9219699 C17.6490817,18.1977985 15.2732403,16.2204077 12.5027896,16.2204077 C9.73037243,16.2204077 7.35443953,18.19789 6.84911648,20.9219699 C6.34534828,23.6461413 7.85660716,26.3433316 10.4450501,27.3347708 C7.46721117,27.8563739 4.68208092,29.5176749 2.43670886,32.1561471 C2.03835425,31.6666926 1.82039767,31.0575611 1.81861418,30.426982 L1.81861418,14.5731049 C1.81861418,13.0564956 3.04762384,11.8292694 4.5624497,11.8292694 L20.421819,11.8292694 C21.9384329,11.8292694 23.1656545,13.0564956 23.1656545,14.5731049 L23.1705522,30.4269408 Z" id="Page-1"></path>
                    <path d="M26.5,0 C22.375,0 19,3.375 19,7.5 C19,11.625 22.375,15 26.5,15 C30.625,15 34,11.625 34,7.5 C34,3.375 30.625,0 26.5,0 Z M26.5,2.5 C27.4248,2.5 28.2998,2.75 29.0255,3.2002 L22.20025,10.02545 C21.75005,9.299875 21.50005,8.424875 21.50005,7.49995 C21.50005,4.74995 23.75005,2.49995 26.50005,2.49995 L26.5,2.5 Z M26.5,12.5 C25.5752,12.5 24.7002,12.25 23.9745,11.7998 L30.79975,4.97455 C31.24995,5.700125 31.49995,6.575125 31.49995,7.50005 C31.49995,10.25005 29.24995,12.50005 26.49995,12.50005 L26.5,12.5 Z" id="Page-1"></path>
                </g>
            </g>
        </g>
    </g>
</svg>