<?xml version="1.0" encoding="UTF-8"?>
<svg width="25px" height="25px" viewBox="0 0 25 25" version="1.1" xmlns="http://www.w3.org/2000/svg" xmlns:xlink="http://www.w3.org/1999/xlink">
    <!-- Generator: Sketch 47 (45396) - http://www.bohemiancoding.com/sketch -->
    <title>Page 1</title>
    <desc>Created with Sketch.</desc>
    <defs></defs>
    <g id="Page-1" stroke="none" stroke-width="1" fill="none" fill-rule="evenodd" opacity="0.3">
        <g id="dashboard-tile" transform="translate(-1324.000000, -378.000000)" fill="#004990">
            <g id="Page-1" transform="translate(1324.000000, 378.000000)">
                <path d="M0,6.25 L0,0 L6.25,0 L6.25,6.25 L0,6.25 Z M0,15.625 L0,9.375 L6.25,9.375 L6.25,15.625 L0,15.625 Z M0,25 L0,18.75 L6.25,18.75 L6.25,25 L0,25 Z M9.375,6.25 L9.375,0 L15.625,0 L15.625,6.25 L9.375,6.25 Z M9.375,15.625 L9.375,9.375 L15.625,9.375 L15.625,15.625 L9.375,15.625 Z M9.375,25 L9.375,18.75 L15.625,18.75 L15.625,25 L9.375,25 Z M18.75,6.25 L18.75,0 L25,0 L25,6.25 L18.75,6.25 Z M18.75,15.625 L18.75,9.375 L25,9.375 L25,15.625 L18.75,15.625 Z M18.75,25 L18.75,18.75 L25,18.75 L25,25 L18.75,25 Z" id="Combined-Shape"></path>
            </g>
        </g>
    </g>
</svg>